<svg width="554" height="607" viewBox="0 0 554 607" fill="none" xmlns="http://www.w3.org/2000/svg">
<g clip-path="url(#clip0_89_7323)">
<path d="M455.091 319.746C457.516 322.392 459.729 324.628 461.743 327.036C465.325 331.322 464.794 333.398 459.754 335.698C458.788 336.14 457.829 336.614 456.94 337.197C455.111 338.388 452.597 339.15 455.853 341.944C457.829 343.641 456.55 346.184 455.117 348.023C451.778 352.309 448.331 356.505 444.935 360.739C429.731 379.682 412.283 396.07 391.099 408.222C383.309 412.694 375.103 416.172 366.506 418.754C365.489 419.061 364.447 419.318 363.462 419.715C361.044 420.701 360.091 422.015 360.053 425.141C359.969 431.758 362.822 436.14 367.267 440.734C382.183 456.16 393.146 474.475 403.693 493.027C404.3 494.097 404.607 495.398 405.97 496.25C410.377 484.379 416.683 473.713 424.992 464.328C442.056 445.045 462.626 432.066 488.888 430.118C520.453 427.774 547.073 449.017 552.606 480.305C556.341 501.419 552.401 521.189 543.12 540.171C541.649 543.181 539.142 544.751 535.969 545.501C524.399 548.223 510.066 540.401 504.648 528.466C502.064 522.765 501.233 516.609 499.729 510.625C498.406 505.334 496.199 500.548 491.651 497.23C484.68 492.137 475.098 492.605 467.621 498.466C460.842 503.783 456.531 510.958 454.177 519.03C446.674 544.693 445.427 570.408 454.944 595.949C455.61 597.743 456.288 599.537 456.978 601.324C457.912 603.733 457.036 605.603 454.509 606.071C452.846 606.379 451.12 606.391 449.418 606.404C384.14 606.885 318.862 607.282 253.584 606.564C213.123 606.116 172.674 607.365 132.213 606.904C93.3566 606.462 54.4942 606.981 15.6447 606.359C14.6852 606.347 13.7258 606.315 12.7728 606.231C10.7453 606.052 9.21023 605.104 9.15906 602.938C9.1015 600.722 10.7005 599.665 12.6833 599.562C16.9367 599.345 21.1964 599.3 25.4562 599.242C31.2446 599.159 31.1359 599.178 31.3214 593.464C31.9034 575.174 36.0416 557.57 41.9644 540.363C53.7203 506.166 71.028 475.026 93.6764 446.877C96.5355 443.322 100.674 440.477 102.522 436.512C104.383 432.527 104.23 427.575 106.379 423.443C106.871 422.495 106.744 421.88 105.835 421.323C104.658 420.605 103.552 419.792 102.183 419.394C75.9338 411.835 54.6989 396.371 35.9969 377.024C27.407 368.139 19.5718 358.568 12.0181 348.779C8.97358 344.833 9.15906 343.161 12.7217 339.657C10.7645 337.639 8.34037 336.428 5.82672 335.3C2.12341 333.635 1.4838 331.476 3.92709 328.279C5.73078 325.915 7.87346 323.82 9.84983 321.585C10.2528 321.123 10.918 320.547 10.8604 320.098C10.7389 319.131 9.68354 319.515 9.03114 319.291C8.9352 319.259 8.82007 319.266 8.71773 319.253C0.39008 317.914 -1.17056 315.768 0.773843 307.421C3.24911 296.78 7.28502 286.684 12.2356 276.972C13.3165 274.851 13.3165 273.295 12.1332 271.155C7.6368 263.058 12.3251 254.698 21.4715 254.409C23.2815 254.352 23.2048 253.128 23.5821 252.174C27.1831 243.115 29.1275 233.608 31.0847 224.114C32.9971 214.819 35.0567 205.562 38.0308 196.542C38.2995 195.729 38.6576 194.966 38.1076 194.114C33.6175 187.106 34.5897 179.611 36.4958 172.186C37.1865 169.495 36.9243 167.484 35.5108 165.088C26.8569 150.411 22.8338 134.197 20.4865 117.534C18.267 101.801 16.9111 85.9583 16.5529 70.0646C16.2139 55.3367 17.8129 40.91 24.0682 27.2968C31.8011 10.3844 45.0281 1.53107 63.4295 0.262648C82.1891 -1.025 99.4329 4.16402 115.832 12.8252C132.718 21.7362 147.87 33.0175 161.302 46.5923C162.779 48.0849 163.937 48.1105 165.728 47.4315C180.675 41.7172 195.892 36.9573 211.875 35.2341C230.827 33.1905 249.695 33.5685 268.429 37.4698C279.507 39.7761 290.163 43.434 300.716 47.4187C302.738 48.181 303.876 47.9183 305.386 46.4193C323.231 28.7766 343.314 14.4588 366.96 5.64385C380.552 0.576551 394.623 -1.36453 409.034 0.992954C428.471 4.17683 439.421 16.797 445.427 34.6319C450.531 49.8018 450.614 65.4585 449.552 81.1665C448.337 99.0398 447.116 116.919 442.875 134.421C440.125 145.773 436.3 156.696 430.128 166.676C429.303 168.015 429.36 169.136 429.738 170.565C431.388 176.792 433.108 183.352 430.454 189.386C428.369 194.14 428.88 198.048 430.32 202.602C434.08 214.505 435.724 226.933 438.833 239.009C440.029 243.66 441.378 248.253 443.15 252.718C443.553 253.73 443.802 254.409 445.325 254.384C453.48 254.23 458.788 262.789 454.88 270.162C453.256 273.231 453.518 275.415 454.976 278.311C459.441 287.177 463.067 296.395 465.453 306.056C465.76 307.299 466.061 308.548 466.233 309.81C467.071 315.883 465.255 318.228 459.204 319.022C457.982 319.182 456.774 319.445 455.104 319.733L455.091 319.746Z" fill="#020202"/>
<path d="M43.9727 174.799C44.9065 169.617 46.4672 164.652 49 160.02C60.5832 143.89 71.2646 127.144 85.1441 112.685C97.3733 99.9431 110.332 88.2838 125.324 78.9692C139.498 70.1671 153.825 61.634 168.798 54.2413C169.559 53.8633 170.378 53.6455 171.133 53.2675C178.846 49.5711 187.059 47.3354 195.297 45.2918C208.754 41.9542 222.39 39.1867 236.308 39.8786C256.213 40.8651 275.478 45.2341 294.045 52.5756C295.497 53.1522 296.898 53.8761 298.318 54.5359C305.373 57.7711 312.082 61.666 318.76 65.5995C326.179 69.9749 333.726 74.1261 340.986 78.777C351.136 85.2793 360.762 92.4286 369.512 100.744C385.323 115.766 399.343 132.269 410.92 150.815C413.05 154.223 416.063 157.022 417.847 160.68C420.054 165.408 421.96 170.232 422.804 175.421C420.566 176.254 418.628 175.12 416.683 174.37C406.756 170.52 396.798 166.76 386.526 163.928C364.875 157.958 343.033 152.948 320.717 149.988C307.106 148.182 293.47 146.811 279.789 145.888C273.968 145.498 268.116 145.12 262.27 145.094C246.408 145.023 230.545 145.03 214.69 145.081C199.051 145.126 183.471 146.081 167.883 147.407C151.522 148.803 135.302 151.148 119.261 154.364C97.2582 158.778 75.4477 164.165 54.5454 172.621C52.2748 173.537 49.9338 174.261 47.5993 175.011C46.4032 175.395 45.124 175.818 43.9663 174.819L43.9727 174.799Z" fill="#79C2BE"/>
<path d="M203.177 261.86C203.88 262.628 204.45 263.083 204.45 261.469C204.45 258.247 203.836 255.108 203.17 251.981C198.962 232.314 190.801 214.678 175.169 201.533C154.036 183.755 130.524 182.045 105.899 193.217C85.432 202.506 70.6508 218.15 59.2338 237.209C56.9376 241.04 54.8397 244.999 52.6907 248.913C52.1214 249.957 50.8166 251.296 52.5819 252.135C54.0466 252.833 54.424 251.168 54.9357 250.181C60.0141 240.373 66.487 231.552 73.7848 223.314C74.1302 222.923 74.3477 222.417 75.0001 222.135C64.3443 244.448 65.131 266.69 74.6355 289.105C74.1558 289.157 73.8168 289.304 73.6121 289.195C59.6368 281.905 46.0964 273.897 33.0996 264.973C32.4536 264.063 32.7158 263.122 33.0676 262.225C36.304 253.954 37.5129 245.127 40.1288 236.683C42.9303 227.631 45.9748 218.663 49.256 209.771C51.1428 204.665 53.3559 199.726 55.652 194.806C56.8097 192.32 58.575 190.661 61.191 189.899C71.5014 186.888 81.7991 183.807 92.3078 181.526C106.878 178.361 121.634 176.343 136.441 174.851C146.898 173.794 157.368 172.577 167.909 172.679C170.685 172.705 173.39 171.859 176.166 172.211C176.505 172.282 176.832 172.41 177.139 172.57C182.051 177.112 186.79 181.878 192.79 185.075C193.442 185.421 194.037 185.895 194.721 186.19C195.956 186.715 197.197 186.901 198.348 186.03C199.531 185.126 199.525 183.871 199.301 182.545C198.904 180.206 197.587 178.188 197.049 175.901C196.256 172.513 196.902 171.577 200.318 171.443C205.294 171.25 210.244 170.187 215.246 171.033C215.56 171.129 215.841 171.289 216.09 171.494C219.263 177.471 222.084 183.64 225.717 189.374C226.855 191.167 227.962 192.974 229.202 194.691C231.543 197.913 234.537 197.99 237.063 194.819C240.984 189.899 243.869 184.338 246.657 178.727C247.879 176.267 248.889 173.685 250.61 171.494C250.872 171.289 251.16 171.142 251.473 171.033C256.904 170.309 262.289 171.007 267.681 171.5C269.817 171.693 270.387 172.961 269.817 174.851C269.203 176.888 268.404 178.867 267.796 180.911C267.278 182.654 266.562 184.595 268.173 185.998C269.856 187.458 271.615 186.286 273.169 185.383C278.522 182.269 283.607 178.803 287.451 173.807C287.841 173.294 288.347 172.903 288.922 172.589C289.236 172.423 289.568 172.301 289.914 172.218C294.794 172.416 299.693 172.468 304.561 172.75C313.899 173.294 323.218 174.146 332.531 175.126C356.631 177.663 380.347 182.013 403.501 189.316C407.447 190.559 410.255 192.711 411.861 196.529C417.489 209.905 422.529 223.474 426.54 237.446C428.836 245.434 430.652 253.557 433.198 261.475C433.588 262.693 434.042 263.929 433.223 265.165C420.137 274.083 406.52 282.097 391.63 289.932C401.397 266.658 402.433 244.185 391.131 221.866C398.039 228.958 403.853 236.735 408.829 245.146C409.692 246.613 410.415 248.163 411.311 249.611C411.982 250.694 412.257 252.891 413.971 252.116C415.813 251.283 413.971 249.771 413.767 248.554C413.901 244.954 412.801 241.655 411.375 238.413C407.511 229.605 401.576 222.244 395.225 215.171C385.535 204.377 374.073 195.991 360.545 190.815C350.606 187.01 340.283 184.326 329.473 184.639C318.555 184.953 308.078 187.183 299.034 193.608C295.862 195.863 292.632 198.144 289.632 200.674C288.737 201.43 287.758 202.224 288.602 203.621C283.275 209.534 278.196 215.613 274.275 222.615C267.796 234.179 263.696 246.498 262.232 259.662C262.142 260.438 260.965 262.161 263.14 262.411C265.385 265.223 265.206 268.842 266.338 272.02C264.899 273.147 265.801 274.531 266.018 275.761C266.939 280.931 269.446 285.46 271.864 290.028C270.374 291.078 269.254 289.925 268.084 289.349C260.543 285.627 252.913 282.033 244.444 281.162C230.565 279.733 216.864 280.13 204.053 286.709C201.974 287.779 199.749 288.522 197.721 289.701C196.826 290.22 195.853 290.829 194.785 289.977C197.216 285.037 200.03 280.239 200.734 274.647C200.836 273.846 202.006 272.5 200.036 272.199C201.105 268.759 201.642 265.153 203.19 261.86H203.177Z" fill="#7EA7D0"/>
<path d="M286.108 567.807C286.479 570.549 286.748 573.31 287.247 576.026C289.108 586.18 295.517 592.138 305.187 594.585C322.111 598.864 336.048 591.266 342.329 574.303C345.649 565.334 346.57 555.962 345.598 546.423C345.515 545.629 345.284 544.713 345.988 544.001C346.225 539.319 349.141 535.859 351.29 532.003C353.497 528.044 353.036 523.399 353.817 519.069C354.252 514.27 354.188 509.536 352.864 504.815C352.064 501.958 352.921 498.902 352.275 495.929C351.226 491.125 349.301 486.839 345.854 483.316C344.875 482.31 344.267 481.567 345.272 480.093C352.646 469.344 356.65 457.319 358.332 443.962C361.767 447.069 364.332 450.388 366.986 453.604C397.681 490.875 417.003 533.431 425.74 580.876C426.412 584.533 426.904 588.236 426.815 591.984C427.318 596.545 425.369 598.826 420.969 598.826C408.202 598.826 395.436 598.768 382.669 598.877C380.463 598.896 379.542 598.134 378.825 596.09C372.359 577.608 368.227 558.601 365.713 539.216C365.669 538.876 365.534 538.62 365.355 538.358C364.895 525.801 364.447 513.245 363.967 500.696C363.628 491.861 363.11 483.04 362.176 474.251C362.01 472.662 361.741 471.086 361.415 469.523C361.294 468.946 361.038 468.19 360.245 468.235C359.458 468.28 359.285 469.055 359.208 469.638C358.901 471.957 358.556 474.283 358.467 476.621C356.995 514.008 358.128 551.394 358.486 588.774C358.499 589.838 358.473 590.901 358.46 591.965C358.929 596.539 356.981 598.826 352.614 598.826H252.702C252.062 598.826 251.416 598.896 250.789 598.806C250.009 598.698 248.896 599.287 248.512 598.275C248.116 597.224 249.081 596.545 249.772 595.911C252.119 593.746 254.608 591.74 257.012 589.639C265.916 581.856 274.55 573.803 282.245 564.79C282.795 564.143 283.364 563.496 284.093 563.034C284.445 562.81 284.803 562.554 285.52 562.759C286.37 564.251 285.302 566.173 286.108 567.788V567.807Z" fill="#FEFEFE"/>
<path d="M293.176 313.679C298.113 314.339 303.045 315.127 308.002 315.633C333.311 318.241 357.04 312.373 379.925 302.027C387.402 298.651 394.726 294.973 401.998 291.194C402.906 290.72 403.712 289.951 405.234 289.97C402.862 296.601 401.512 303.34 400.469 310.15C397.7 328.266 395.544 346.492 391.01 364.301C386.411 382.335 378.8 398.638 363.916 410.605C352.537 419.747 339.585 425.788 325.578 429.664C310.343 433.885 294.839 436.486 279.053 437.441C261.63 438.491 244.214 440.465 226.753 439.677C206.03 438.741 185.242 438.242 164.698 434.859C150.384 432.495 136.364 429.119 123.015 423.161C98.6207 412.264 83.4173 393.75 76.4968 368.068C71.9684 351.239 69.5571 334.038 67.0562 316.844C65.7386 307.799 64.4786 298.734 61.012 289.374C64.9839 291.424 68.3099 293.173 71.6614 294.871C88.7196 303.506 106.162 311.085 125.164 314.358C141.628 317.196 158.014 316.908 174.305 313.058C174.702 312.962 175.137 313.02 175.552 313C175.053 316.812 176.55 318.132 180.586 316.889C187.296 314.826 193.743 312.014 200.35 309.656C208.351 306.799 216.18 303.442 224.629 301.95C235.24 300.073 245.333 302.123 255.273 305.665C265.18 309.195 274.921 313.173 284.874 316.581C288.315 317.76 289.293 317.594 291.615 314.685C292.056 314.128 292.747 314.153 293.176 313.679Z" fill="#B8DADC"/>
<path d="M26.6844 40.4744C30.215 27.5723 36.1378 16.3614 49.1217 10.7304C59.0996 6.4062 69.6147 6.59198 80.2129 7.91165C92.9986 9.5132 104.032 15.5991 115.129 21.4415C129.322 28.9112 142.088 38.4692 154.158 49.0074C156.473 51.0254 155.584 51.5571 153.48 52.4796C137.56 59.4623 122.171 67.4252 107.869 77.3741C104.895 79.4433 101.889 81.4868 99.1388 83.8251C97.1305 85.5356 96.2414 85.574 95.1733 82.9346C90.6896 71.8455 84.9204 61.397 78.4796 51.3585C73.1005 42.9728 66.9667 35.1508 57.6349 30.7562C51.1045 27.6812 44.2927 26.874 37.2635 29.6799C39.7195 30.0258 42.1884 30.2821 44.6189 30.7433C47.0622 31.2046 49.6014 31.5057 52.0703 33.1969C39.7899 41.3264 37.9095 53.7416 37.3914 66.7141C36.9309 78.2005 38.7026 89.4497 40.986 100.648C41.197 101.692 41.3441 102.749 41.5168 103.793C41.7023 104.402 41.9837 105.139 41.3697 105.542C40.615 106.035 40.2376 105.228 39.969 104.741C38.5171 102.121 37.6408 99.2512 36.6622 96.4453C31.6797 82.1467 27.6374 67.611 25.9616 52.4988C25.5139 48.4373 26.2686 44.4718 26.678 40.4744H26.6844Z" fill="#7EA7D0"/>
<path d="M43.9727 174.799C49.0832 174.165 53.6564 171.853 58.3894 170.078C70.1198 165.677 82.2019 162.551 94.2457 159.188C102.209 156.965 110.3 155.446 118.301 153.512C126.91 151.436 135.833 150.719 144.583 149.181C154.605 147.419 164.768 146.92 174.836 145.581C178.936 145.036 183.1 145.081 187.219 144.876C213.481 143.544 239.775 143.947 266.056 144.255C278.861 144.402 291.711 145.299 304.42 146.836C322.373 149.002 340.282 151.609 357.974 155.632C369.826 158.329 381.524 161.564 393.216 164.793C401.25 167.01 408.944 170.482 416.798 173.364C418.788 174.095 420.809 174.723 422.817 175.402C423.815 178.278 423.796 181.238 423.617 184.358C421.736 184.274 420.361 183.172 418.851 182.519C400.041 174.415 380.251 169.912 360.181 166.465C323.563 160.187 286.626 157.887 249.535 157.599C224.725 157.407 199.915 157.362 175.136 158.906C140.777 161.045 106.628 164.665 73.2602 173.678C63.6982 176.26 54.3215 179.418 45.3351 183.64C44.6763 183.948 43.9855 184.185 42.9814 184.582C42.5976 181.058 42.8726 177.894 43.9855 174.793L43.9727 174.799Z" fill="#B8DADD"/>
<path d="M420.975 12.8701C425.337 14.4588 428.228 17.8413 430.902 21.3583C435.648 27.6043 438.807 34.6191 440.246 42.3706C441.506 50.6218 439.927 58.6744 438.289 66.6629C435.724 79.1742 431.9 91.3332 427.473 103.306C427.064 104.408 426.648 105.536 425.619 106.208C425.056 106.573 424.634 106.368 424.646 105.619C426.373 96.3044 428.305 87.0282 428.989 77.5534C429.616 68.8987 429.373 60.3079 427.301 51.8454C425.414 44.1387 421.583 37.7069 414.259 33.1521C419.248 30.628 424.256 30.3013 429.181 29.5262C423.386 27.0149 417.624 27.6748 411.937 29.5454C404.269 32.0694 398.538 37.3417 393.722 43.5365C384.396 55.5353 377.405 68.9243 371.431 82.845C370.389 85.2793 369.73 85.6445 367.504 83.8956C352.288 71.9224 335.454 62.659 317.909 54.6256C317.046 54.2349 316.227 53.7544 315.389 53.3124C318.779 52.6269 321.126 50.2822 323.493 48.0593C334.219 38.0208 346.397 30.0451 359.528 23.6901C370.472 18.3922 382.253 15.5222 394.348 13.9463C403.207 12.7932 412.065 12.3576 420.981 12.8765L420.975 12.8701Z" fill="#7EA7D0"/>
<path d="M39.5083 598.512C39.1438 586.449 41.587 574.777 44.51 563.188C54.3216 524.328 71.3095 488.985 96.3116 457.595C98.691 454.609 101.153 451.701 104.153 448.049C104.729 453.796 105.215 458.799 106.501 463.649C106.699 464.411 105.957 464.686 105.4 465.013C87.8816 475.34 82.2275 492.002 81.4536 510.977C80.7373 528.665 85.336 545.366 92.0327 561.567C92.4356 562.547 92.813 563.54 93.2031 564.527C93.8747 566.186 93.2863 567.672 92.506 569.082C86.6856 579.562 79.8546 589.274 70.9129 597.378C69.9279 598.268 68.8662 598.839 67.491 598.839C58.3447 598.806 49.1983 598.871 40.0584 598.794C39.8601 598.794 39.6746 598.646 39.5019 598.512H39.5083Z" fill="#FEFEFE"/>
<path d="M167.877 450.689C169.604 455.782 171.177 460.932 173.083 465.955C185.805 499.472 200.714 531.926 219.647 562.451C223.337 568.396 226.087 574.924 229.234 581.209C229.963 582.669 228.179 587.653 226.759 588.576C225.774 589.216 225.441 588.236 224.949 587.865C220.843 584.803 217.107 581.318 213.519 577.679C196.544 560.472 179.518 543.297 165.427 523.514C163.636 521.003 162.063 518.319 160.138 515.917C156.818 511.772 157.304 507.717 159.952 503.553C162.754 499.145 165.421 494.667 167.199 489.715C169.534 483.2 168.337 477.166 163.732 473.501C163.438 476 164.097 478.408 163.342 481.009C156.153 476.634 148.433 474.027 140.815 471.118C137.541 469.869 135.2 466.672 132.027 464.898C130.94 464.289 131.432 462.931 131.471 461.919C131.758 454.398 133.844 447.287 136.466 440.304C137.573 439.856 138.545 440.413 139.517 440.778C147.947 443.924 156.402 446.98 165.293 448.6C166.572 448.831 167.384 449.536 167.883 450.676L167.877 450.689Z" fill="#FEFEFE"/>
<path d="M330.285 441.06C333.247 448.985 335.601 457.012 334.897 465.634C334.66 468.536 333.394 470.138 330.458 470.958C321.83 473.36 313.662 477.044 305.539 480.766C303.352 481.772 302.674 481.4 302.77 479.075C302.84 477.409 302.782 475.743 302.782 473.597C299.853 475.615 298.842 478.229 298.388 481.041C297.941 483.802 297.851 486.82 299.29 489.177C301.331 492.528 300.128 494.642 298.222 497.557C292.402 506.468 291.768 516.115 295.964 525.904C296.892 528.069 296.719 529.415 295.299 531.279C281.087 549.882 264.323 566.122 247.911 582.682C244.61 586.013 241.496 589.511 238.675 593.259C237.907 594.277 236.762 595.321 236.641 596.449C236.238 600.209 233.712 599.767 231.147 599.787C229.132 599.806 228.627 598.973 229.311 597.288C229.995 595.623 230.916 594.053 231.665 592.407C241.898 569.882 255.496 549.158 266.651 527.134C279.168 502.4 290.246 477.044 298.555 450.541C298.619 450.349 298.785 450.189 298.9 450.01C299.572 449.292 300.352 448.812 301.343 448.639C310.061 447.095 318.338 444.116 326.55 440.907C327.753 440.439 329.102 439.497 330.285 441.054V441.06Z" fill="#FEFEFE"/>
<path d="M125.215 592.727C118.864 584.847 113.645 576.25 109.097 567.23C108.592 566.218 108.842 565.135 108.842 564.085C108.829 537.858 108.829 511.631 108.829 485.404C108.829 481.067 109.846 479.811 114.106 478.889C119.939 477.627 125.542 480.08 129.143 485.603C133.025 491.547 135.321 498.191 137.509 504.898C143.367 522.893 142.005 541.048 138.986 559.274C137.214 569.972 134.272 580.273 128.957 589.793C128.151 591.234 127.799 593.476 125.209 592.727H125.215Z" fill="#FEFEFE"/>
<path d="M526.369 451.265C533.283 456.55 537.536 463.738 540.498 471.701C547.322 490.061 545.538 508.345 539.545 526.506C538.483 529.728 537.396 532.874 534.933 535.5C532.605 537.98 530.111 538.338 527.162 537.486C519.397 535.251 514.005 530.375 510.98 522.842C509.106 518.172 508.198 513.232 506.823 508.421C505.141 502.528 502.249 497.448 497.683 493.354C496.8 492.06 497.452 490.894 498.086 489.805C499.518 487.326 500.983 484.853 503.087 482.861C512.291 474.123 519.25 463.834 524.354 452.239C524.527 451.848 524.738 451.483 525.039 451.176C525.506 450.932 525.953 450.932 526.375 451.265H526.369Z" fill="#FEFEFE"/>
<path d="M203.177 261.86C202.799 265.511 202.544 269.208 200.024 272.199C189.112 290.188 175.22 304.615 154.285 310.63C153.384 310.886 152.405 310.963 151.458 310.989C131.637 311.463 112.833 307.023 94.7063 299.246C93.6893 298.811 92.8834 298.26 92.3589 297.235C80.3152 273.801 77.9486 249.906 89.711 225.697C95.2116 214.377 103.533 205.536 115.577 200.834C118.845 199.553 122.267 198.855 125.657 198.31C126.053 199.079 125.548 199.226 125.241 199.393C105.554 210.066 92.506 235.338 96.0494 261.597C98.0578 276.498 104.454 289.067 116.984 297.837C133.716 309.547 155.769 307.26 171.804 292.417C185.313 279.912 192.847 261.129 192.112 242.295C196.442 248.439 200.471 254.762 203.17 261.86H203.177Z" fill="#FEFEFE"/>
<path d="M266.325 272.02C263.664 269.349 264.381 265.55 263.127 262.411C263.971 258.99 265.973 256.113 267.572 253.051C269.523 249.316 271.704 245.722 274.665 241.635C274.717 246.389 274.569 250.393 275.19 254.339C278.004 272.206 286.006 287.055 301.113 297.363C323.301 312.494 351.469 305.249 364.121 281.443C379.19 253.096 369.173 216.421 341.786 199.643C341.37 199.386 340.775 199.258 340.724 198.406C350.299 199.463 358.492 203.339 365.304 210.04C379.676 224.185 384.984 241.776 384.274 261.482C383.833 273.82 380.373 285.39 374.661 296.312C373.938 297.69 373.101 298.708 371.61 299.349C354.085 306.831 335.901 311.495 316.764 310.906C307.541 310.617 299.29 306.466 291.98 301.008C281.464 293.154 272.932 283.41 266.325 272.026V272.02Z" fill="#FEFEFE"/>
<path d="M215.08 533.309C215.815 518.364 218.355 503.431 219.685 488.376C219.819 486.833 220.587 486.237 222.058 485.904C228.326 484.494 228.403 484.488 231.198 490.292C231.339 490.58 231.454 490.881 231.614 491.157C232.132 492.047 232.113 493.662 233.213 493.713C234.665 493.777 234.255 491.9 234.978 491.054C235.311 490.663 235.432 490.1 235.643 489.606C237.645 485.058 241.24 483.841 245.615 486.173C246.804 486.807 246.702 487.928 246.823 488.94C247.744 496.442 248.685 503.95 249.51 511.464C250.488 520.356 251.448 529.254 251.556 538.217C251.588 540.76 250.949 543.015 249.778 545.238C244.866 554.559 240.031 563.925 235.131 573.252C234.658 574.149 234.473 575.629 233.321 575.661C232.055 575.693 232.049 574.143 231.575 573.246C226.51 563.649 221.553 553.989 216.372 544.456C214.421 540.862 215.579 537.14 215.099 533.303L215.08 533.309Z" fill="#3879B9"/>
<path d="M144.301 597.275C153.192 582.746 156.339 566.57 157.707 549.921C158.142 544.636 158.091 539.306 158.264 533.995C158.04 533.29 157.675 532.432 158.507 532.022C159.294 531.631 159.94 532.342 160.343 532.944C162.063 535.513 164.084 537.871 165.811 540.42C170.493 547.339 176.314 553.284 181.718 559.588C191.645 571.164 203.676 580.741 213.046 592.836C214.159 594.271 215.317 595.661 216.238 597.224C216.82 598.211 216.628 598.845 215.336 598.826C214.805 598.819 214.274 598.826 213.737 598.826C191.479 598.826 169.22 598.845 146.962 598.762C146.073 598.762 143.873 600.043 144.301 597.269V597.275Z" fill="#FEFEFE"/>
<path d="M281.65 265.082C278.548 255.652 277.653 246.024 279.175 236.209C279.347 235.088 279.782 233.89 280.448 232.987C288.583 221.885 297.199 211.264 309.454 204.319C314.698 201.347 320.34 199.521 326.218 198.547C330.868 197.779 334.993 199.905 338.901 202.019C351.361 208.765 359.253 219.393 364.025 232.519C365.291 236.004 366.219 239.598 366.666 243.301C365.515 243.705 364.639 242.897 363.654 242.59C357.027 240.508 351.073 241.911 345.7 246.113C343.57 247.779 342.508 249.989 342.611 252.782C342.7 255.223 342.758 257.683 342.54 260.117C342.457 261.078 342.771 262.628 340.877 262.385C340.129 261.36 340.136 260.162 340.199 259.003C340.634 250.719 339.899 242.609 336.726 234.845C336.483 234.255 336.368 233.615 336.375 232.974C336.931 231.334 338.249 232.013 339.317 232.064C344.088 232.276 346.218 229.701 345.08 225.043C343.493 218.535 333.023 210.328 326.435 210.431C323.41 210.476 321.325 212.961 321.753 215.966C321.939 217.273 322.943 218.567 321.856 219.912C321.401 220.213 320.89 220.418 320.359 220.399C312.274 220.104 307.906 225.203 304.9 231.635C301.171 239.624 299.035 248.042 300.269 257.01C300.403 257.971 300.39 258.926 299.853 259.791C299.035 260.572 298.05 260.258 297.148 260.092C291.564 259.041 286.684 260.207 282.763 264.538C282.475 264.858 282.066 265.005 281.644 265.076L281.65 265.082Z" fill="#3F5366"/>
<path d="M99.6568 244.031C102.976 225.639 111.624 210.93 128.305 201.494C137.202 196.459 145.542 198.906 153.825 202.705C166.291 208.419 174.727 218.644 183.317 228.887C188.626 235.223 187.833 242.238 187.897 249.323C187.954 255.184 186.336 260.803 184.526 266.338C181.385 260.796 176.365 259.349 170.455 259.874C169.291 259.976 168.126 260.233 167.097 259.413C165.965 257.427 166.406 255.242 166.451 253.16C166.579 247.222 165.459 241.526 163.579 235.94C162.799 233.608 161.782 231.385 160.458 229.316C156.729 223.455 151.868 219.643 144.448 220.489C143.227 219.284 144.288 218.093 144.512 216.927C145.408 212.308 143.009 209.579 138.519 210.636C131.24 212.359 125.548 216.523 122.075 223.205C119.165 228.797 121.698 232.346 128.004 231.981C128.855 231.93 129.712 231.725 130.377 232.494C128.931 237.632 126.866 242.596 126.252 247.958C126.194 248.477 125.765 248.874 125.311 249.175C124.186 249.502 123.559 248.733 122.887 248.067C115.768 240.982 109.456 239.848 100.271 243.993C100.085 244.076 99.8615 244.063 99.6504 244.038L99.6568 244.031Z" fill="#3F5366"/>
<path d="M450.346 506.999C447.832 513.06 445.229 519.081 443.847 525.532C443.56 526.865 443.169 528.172 442.83 529.485C441.244 528.095 440.566 526.173 439.856 524.29C436.07 514.193 429.923 505.507 423.604 496.922C423.143 496.301 422.76 495.205 421.698 495.577C420.937 495.84 420.886 496.775 420.738 497.486C420.067 500.612 419.267 503.713 418.845 506.89C418.391 510.286 420.201 513.06 421.372 515.994C423.265 520.741 426.175 525.02 427.755 529.914C427.729 530.228 427.621 530.504 427.435 530.753C424.634 529.965 421.755 529.312 419.824 526.826C416.907 520.337 413.997 513.847 411.061 507.364C410.594 506.327 410.543 505.27 410.869 504.251C412.494 499.203 414.087 494.136 417.176 489.722C417.611 489.267 418.212 489.196 418.602 489.562C420.828 491.65 421.858 490.401 422.964 488.28C425.619 483.181 429.309 478.793 432.955 474.398C434.145 472.963 435.43 471.695 433.812 469.734C433.076 468.844 433.492 467.96 434.228 467.191C435.174 466.198 436.249 465.314 436.959 464.11C439.46 461.214 442.351 458.748 445.408 456.461C446.553 455.596 447.404 456.243 448.12 457.082C449.463 458.652 450.832 458.338 452.309 457.319C457.388 453.809 462.92 451.182 468.683 449.036C470.807 448.248 472.137 447.377 470.557 444.962C470.129 444.308 470.282 443.527 470.704 442.848C480.714 439.023 490.954 437.428 501.591 439.683C502.032 441.464 501.764 443.078 500.497 444.468C500.203 444.68 499.883 444.827 499.538 444.93C492.553 445.256 485.556 445.481 478.751 447.377C474.452 448.575 474.516 448.549 475.821 452.72C478.789 462.175 479.825 471.816 478.041 481.644C477.721 483.418 477.267 485.186 475.962 486.57C469.63 487.723 464.264 490.792 459.46 494.962C459.767 484.584 456.684 475.096 451.951 466.032C451.459 465.083 450.985 464.142 450.333 463.283C449.45 462.117 448.51 462.041 447.333 462.899C444.302 465.116 441.737 467.819 439.153 470.51C437.746 471.977 438.628 473.219 439.524 474.481C445.248 482.56 448.197 491.74 450.199 501.311C450.595 503.22 450.442 505.09 450.359 506.986L450.346 506.999Z" fill="#4B79AA"/>
<path d="M448.593 322.526C450.448 324.128 452.303 325.736 454.151 327.337C455.405 329.144 453.742 329.836 452.77 330.592C450.071 332.693 447.589 334.974 445.51 337.709C444.429 339.131 444.065 340.521 445.082 342.097C446.297 343.987 445.606 345.493 444.193 346.928C441.743 349.42 439.204 351.828 436.799 354.429C437.803 355.96 440.221 354.275 440.688 356.422C436.939 360.989 433.115 365.48 428.701 369.439C427.102 370.445 425.465 370.112 423.821 369.58C422.593 369.183 421.32 368.779 420.233 369.798C414.074 375.563 407.147 380.464 401.371 386.665C400.06 387.088 399.977 385.839 399.414 385.237C398.646 384.148 397.885 383.052 397.265 381.861C396.875 381.047 396.203 380.304 396.644 379.292C398.621 374.935 400.252 370.451 401.525 365.839C401.864 364.596 401.806 363.5 400.495 362.841C398.838 362.014 398.634 360.688 399.184 359.087C401.07 348.753 403.264 338.471 404.607 328.042C405.573 320.572 406.622 313.109 407.505 305.627C407.773 303.385 408.618 301.937 410.844 301.226C415.692 299.682 420.079 297.075 424.723 295.044C426.303 294.916 425.107 296.107 425.695 296.511C432.795 292.52 439.939 288.151 446.719 283.179C447.602 282.532 448.44 281.424 449.796 282.308C451.868 286.203 453.556 290.258 454.855 294.48C445.734 305.127 434.407 312.27 420.866 315.883C419.421 316.267 417.956 316.479 416.453 316.453C412.34 316.383 410.613 313.321 412.782 309.733C414.042 307.645 415.583 305.729 417.041 304.057C412.219 308.144 410.908 310.701 410.984 317.145C411.042 322.379 410.421 327.542 409.929 332.731C409.66 335.557 410.006 335.813 412.897 335.352C424.333 333.545 435.091 329.701 445.497 324.73C446.681 324.166 447.614 323.334 448.593 322.526Z" fill="#4A78AB"/>
<path d="M11.9542 327.767C13.6748 326.287 15.3953 324.807 17.1159 323.327C21.1901 324.301 24.9126 326.191 28.6223 328.01C36.7645 332.001 45.5079 333.737 54.2833 335.486C56.3492 335.896 56.7905 335.05 56.5411 333.327C55.5369 326.357 56.3044 319.266 55.1659 312.308C54.5199 308.349 51.7632 305.806 48.949 303.327C50.6184 305.371 52.3965 307.356 53.5989 309.708C55.6584 313.731 53.9507 316.46 49.5438 316.46C47.8233 316.46 46.1411 316.191 44.5229 315.64C32.9972 311.745 22.3286 306.408 13.9754 297.235C13.1695 296.351 12.031 295.934 11.2571 295.037C12.952 290.989 14.647 286.946 16.3483 282.898C17.1414 282.046 17.9154 282.129 18.8556 282.769C26.2366 287.779 33.7584 292.571 41.3825 297.094C41.4976 297.593 42.0477 297.01 41.6767 297.222C41.6319 297.247 41.6127 297.183 41.5552 297.062C41.2545 296.363 40.455 295.563 41.9325 295.23C46.4545 297.247 50.8934 299.502 55.5433 301.181C57.9546 302.052 58.8181 303.314 59.0867 305.684C60.6346 319.515 62.4894 333.302 65.0414 346.992C65.841 351.265 66.7556 355.518 67.6191 359.785C68.297 361.226 67.8365 362.392 66.423 362.828C64.1844 363.52 64.4978 364.865 65.0478 366.537C66.4614 370.848 67.8877 375.16 69.7489 379.311C69.9728 380.483 69.1925 381.354 68.8599 382.36C68.1819 383.565 67.6063 384.846 66.3654 385.621C66.0584 385.704 65.7514 385.698 65.4444 385.634C59.4449 381.95 54.5903 376.857 49.3327 372.283C46.8767 370.144 44.702 368.286 41.2162 369.862C40.0457 370.393 38.7089 370.259 37.6088 369.368C33.5217 365.32 29.5626 361.156 25.9808 356.646C26.2622 354.455 28.4944 355.781 29.7097 354.352C27.4327 352.2 25.3348 349.765 23.109 347.459C21.3181 345.601 20.4418 343.776 21.5995 341.207C22.4821 339.247 21.3181 337.677 19.9685 336.447C17.7874 334.448 15.843 332.193 13.3934 330.47C12.5235 329.861 11.1675 329.33 11.9479 327.767H11.9542Z" fill="#4B78A9"/>
<path d="M341.12 262.532C342.374 259.131 341.798 255.594 341.683 252.135C341.6 249.669 342.4 247.849 344.094 246.197C350.145 240.277 360.2 238.97 366.673 243.307C368.438 255.101 367.139 266.447 361.984 277.299C350.65 301.181 323.256 308.388 301.778 293.019C291.96 285.992 285.475 276.485 281.656 265.082C285.244 259.387 292.741 257.26 299.514 260.008C300.87 261.014 300.844 262.596 301.158 264.019C302.712 271.104 305.341 277.523 310.848 282.629C317.756 289.028 326.576 288.74 332.665 281.501C335.78 277.792 337.897 273.545 339.176 268.849C339.752 266.728 339.732 264.403 341.127 262.532H341.12Z" fill="#90D7FD"/>
<path d="M99.6567 244.031C103.52 239.912 108.407 240.348 113.204 241.27C118.154 242.218 122.024 245.108 125.043 249.131C126.162 250.136 125.919 251.418 125.772 252.68C125.183 254.819 125.158 256.978 125.669 259.137C126.507 265.37 127.563 271.527 130.735 277.119C131.906 279.176 133.274 281.059 134.969 282.667C141.615 288.958 149.648 288.855 156.172 282.34C161.641 276.876 164.206 269.951 165.721 262.545C165.965 261.354 165.773 259.899 167.34 259.368C172.687 258.541 177.893 258.49 182.454 262.084C183.835 263.173 184.967 264.365 184.526 266.338C180.17 277.901 173.378 287.632 162.843 294.32C139.907 308.881 112.116 299.048 102.759 273.256C99.3113 263.743 98.3391 254.025 99.6503 244.038L99.6567 244.031Z" fill="#90D7FD"/>
<path d="M415.788 40.4359C420.642 46.4321 421.979 53.6519 422.619 61.0062C424.064 77.688 420.956 93.87 416.843 109.905C415.871 113.697 414.982 117.528 413.338 121.116C411.841 122.634 411.317 121.141 410.863 120.187C406.245 110.494 399.164 102.768 391.464 95.5164C390.613 94.7156 389.794 93.838 388.758 93.2935C385.458 91.5638 385.221 88.7579 386.033 85.638C387.863 78.5976 390.734 71.9608 394.323 65.6635C399.631 56.3425 406.821 48.5141 414.393 41.0189C414.777 40.6409 415.187 40.3014 415.781 40.4423L415.788 40.4359Z" fill="#E5A4DD"/>
<path d="M290.611 559.568C290.425 550.574 290.425 550.593 298.529 550.363C311.922 549.978 325.316 549.562 338.709 549.139C339.752 549.107 340.909 548.627 340.813 550.459C340.314 560.459 340.225 570.517 334.11 579.242C326.921 589.498 314.999 593.073 303.428 588.268C297.851 585.956 294.941 581.362 293.188 575.93C291.378 570.325 290.598 564.527 290.611 559.575V559.568Z" fill="#FEFEFE"/>
<path d="M52.9144 120.456C46.5247 100.705 42.2586 80.6348 44.0431 59.6994C44.5803 53.4085 46.1026 47.3418 49.4989 41.8901C49.8955 41.2559 50.1321 40.5448 50.938 40.3206C51.9998 40.1028 52.4283 40.974 52.9911 41.557C62.2206 51.2111 70.8809 61.2945 76.3175 73.6777C78.3195 78.2325 80.4878 82.8001 80.5453 87.9763C80.5709 90.0391 79.9697 91.6535 78.2683 92.9539C68.6231 100.302 61.3188 109.629 55.556 120.232C54.814 121.596 53.9889 122.807 52.908 120.449L52.9144 120.456Z" fill="#E5A4DD"/>
<path d="M433.217 265.165C431.727 259.637 430.224 254.115 428.753 248.58C424.87 233.993 420.304 219.63 414.662 205.626C413.357 202.397 411.822 199.258 410.582 196.004C409.347 192.782 406.859 191.251 403.789 190.328C385.285 184.768 366.57 180.206 347.337 177.932C334.392 176.401 321.478 174.729 308.437 173.999C302.085 173.64 295.683 174.037 289.376 172.948C289.581 168.803 291.334 166.792 294.538 167.048C308.884 167.605 323.103 169.495 337.321 171.244C352.601 173.121 367.773 175.716 382.887 178.65C395.89 181.18 408.285 185.485 420.278 191.071C421.717 191.744 422.312 192.705 422.67 194.146C425.587 205.805 427.781 217.618 429.942 229.438C431.669 238.874 433.953 248.195 437.969 256.914C439.441 260.111 438.922 261.757 436.127 263.282C435.117 263.833 434.183 264.537 433.217 265.172V265.165Z" fill="#4071AE"/>
<path d="M176.883 172.89C161.142 173.96 145.382 174.665 129.686 176.574C115.909 178.252 102.177 180.142 88.6748 183.256C79.1895 185.447 69.7873 188.067 60.513 191.122C58.6006 191.757 57.558 192.955 56.7074 194.646C53.9379 200.13 51.6289 205.805 49.5758 211.584C47.2028 218.266 44.8747 224.966 42.6041 231.686C39.745 240.13 37.903 248.855 35.7027 257.478C35.0375 260.079 33.4577 262.302 33.0932 264.967C27.0233 260.963 27.1001 260.995 29.7288 254.32C33.5665 244.576 35.7411 234.384 37.6279 224.114C39.4956 213.967 41.2993 203.807 43.9856 193.832C44.3438 192.493 44.8875 191.699 46.2178 191.058C60.4107 184.274 75.3326 180.001 90.7983 177.253C106.699 174.422 122.644 171.923 138.679 170.052C149.648 168.778 160.618 167.336 171.683 167.042C175.341 166.747 177.004 168.611 176.889 172.89H176.883Z" fill="#3F70AF"/>
<path d="M26.6843 40.4744C25.5778 59.0587 32.8949 85.1896 41.0946 105.376C41.2609 104.748 41.3888 104.267 41.5167 103.793C43.4036 109.552 44.1839 115.606 46.2754 121.314C47.9128 125.792 48.8146 130.584 52.1917 134.255C52.6906 134.799 52.7418 135.325 52.3452 135.972C47.8936 143.211 44.331 150.917 40.5829 159.079C37.3081 153.979 35.53 148.79 33.8159 143.595C28.8206 128.425 26.9593 112.679 25.4882 96.8809C24.3881 85.1127 23.1281 73.3382 23.6014 61.4931C23.8828 54.395 24.5928 47.3226 26.6843 40.4744Z" fill="#4070AF"/>
<path d="M424.634 105.619C426.169 105.811 426.098 104.389 426.38 103.627C432.174 87.9379 436.959 71.9544 439.37 55.3623C439.99 51.083 439.965 46.7076 440.24 42.377C441.749 47.1752 442.536 52.1208 442.645 57.1112C443.214 83.8187 440.937 110.283 434.842 136.324C433.032 144.056 430.39 151.603 426.053 159.047C423.968 154.716 422.139 150.725 420.131 146.817C418.487 143.608 416.587 140.533 414.892 137.349C414.4 136.414 413.415 135.562 414.393 134.191C419.657 126.811 421.295 118.06 423.469 109.52C423.802 108.201 423.776 106.778 424.64 105.619H424.634Z" fill="#3F70AF"/>
<path d="M11.2633 295.05C12.2547 294.653 13.131 294.788 13.8217 295.646C18.4333 301.386 24.2857 305.678 30.7137 308.984C36.6109 312.014 42.6999 314.909 49.4605 315.627C50.7589 315.761 52.473 316.21 53.215 314.672C54.0465 312.962 53.797 311.066 52.6649 309.515C50.7333 306.863 48.6674 304.314 46.6015 301.642C51.8718 303.218 55.8438 308.356 56.1316 313.622C56.509 320.617 56.8735 327.619 57.4748 334.602C57.6858 337.024 56.784 336.831 54.9931 336.556C42.8534 334.685 31.3853 330.771 20.4544 325.236C19.3287 324.666 17.4931 325.217 17.1093 323.334C20.7806 318.715 19.7829 315.678 14.0392 314.173C12.4018 313.743 10.7005 313.353 9.0247 313.346C6.34476 313.327 6.17846 312.142 6.70294 309.906C7.8862 304.845 9.52359 299.945 11.2633 295.063V295.05Z" fill="#7FA7D1"/>
<path d="M448.593 322.526C449.137 324.551 447.339 324.73 446.265 325.268C435.213 330.778 423.572 334.519 411.413 336.639C409.775 336.928 408.509 336.678 408.861 334.641C410.198 326.876 409.373 318.92 410.856 311.213C411.733 306.652 415.18 303.808 419.581 302.11C417.636 304.672 415.749 307.28 413.715 309.772C412.475 311.29 412.359 312.847 413.114 314.512C413.875 316.191 415.481 315.723 416.773 315.627C423.898 315.076 430.211 312.059 436.351 308.734C442.357 305.486 447.666 301.245 452.277 296.171C452.974 295.403 453.627 294.474 454.861 294.493C457.023 299.554 458.558 304.82 459.92 310.15C460.464 312.283 459.991 313.257 457.592 313.34C455.603 313.41 453.608 313.91 451.657 314.403C447.333 315.492 445.651 319.298 448.593 322.533V322.526Z" fill="#7FA7D2"/>
<path d="M415.788 40.4359C412.283 44.2732 408.765 48.0977 405.286 51.9607C396.478 61.7365 390.402 73.0178 386.852 85.6893C385.989 88.7771 386.686 90.7502 389.423 92.9475C398.499 100.238 406.181 108.835 411.387 119.418C411.797 120.257 411.63 121.769 413.338 121.109C412.667 123.889 411.586 126.497 410.057 129.283C406.718 124.889 403.603 120.661 400.354 116.542C393.095 107.349 385.004 98.9437 376.28 91.141C375.199 90.1736 373.99 89.4369 374.815 87.4638C380.987 72.7167 387.869 58.3797 398.141 45.9581C400.987 42.5179 404.352 39.5775 407.793 36.7203C410.07 34.8305 411.867 34.8753 413.543 37.3737C414.246 38.4244 415.033 39.4109 415.782 40.4295L415.788 40.4359Z" fill="#CA6CBE"/>
<path d="M52.9146 120.456C53.6501 121.045 54.0914 121.782 54.8654 120.193C60.1869 109.36 67.5935 100.11 77.194 92.8514C80.4751 90.3658 80.1297 87.6047 79.3942 84.7284C77.5457 77.5278 74.3669 70.891 70.5037 64.4976C65.0734 55.5033 57.7308 48.1554 50.9446 40.3142C54.4624 34.2027 55.3131 33.9913 60.545 38.2706C68.4122 44.7024 74.1878 52.8127 79.1447 61.5956C83.7563 69.7635 88.0289 78.0851 91.4635 86.8296C92.0648 88.3671 92.1735 89.4369 90.7344 90.7182C78.1917 101.865 67.101 114.325 57.4813 128.092C57.2447 128.431 56.9441 128.726 56.4836 129.258C54.8334 126.362 53.8036 123.441 52.921 120.449L52.9146 120.456Z" fill="#CB6CBE"/>
<path d="M525.295 451.477C521.489 461.81 515.425 470.721 508.115 478.85C505.205 482.086 501.872 484.956 499.55 488.71C498.655 490.151 497.632 491.535 497.676 493.354C493.129 489.722 487.775 487.941 482.23 486.608C484.475 485.5 485.869 483.796 487.04 481.483C492.016 471.643 495.393 461.272 498.022 450.612C498.553 448.453 499.007 446.262 500.177 444.321L500.369 444.167C501.501 443.45 502.78 443.258 504.047 443.437C511.223 444.456 518.304 445.782 524.303 450.298C524.732 450.618 525.16 450.919 525.295 451.483V451.477Z" fill="#4B79AA"/>
<path d="M293.176 313.679C289.581 319.227 289.415 318.939 283.23 316.87C270.099 312.475 257.511 306.537 243.965 303.321C233.923 300.938 224.156 302.097 214.613 305.441C203.721 309.259 192.95 313.41 182.128 317.421C180.413 318.055 178.661 318.433 176.825 318.177C175.393 317.978 174.766 317.036 174.286 315.697C173.742 314.192 174.708 313.692 175.559 313C187.551 309.855 198.783 304.993 209.714 299.093C226.913 289.81 244.054 291.264 260.709 301.046C269.018 305.928 277.908 309.381 287.195 311.879C289.204 312.417 291.187 313.077 293.182 313.679H293.176Z" fill="#FDFDFD"/>
<path d="M194.772 289.976C200.977 287.26 206.925 283.916 213.519 282.161C227.821 278.362 242.026 278.381 256.149 283.173C261.586 285.018 266.613 287.766 271.851 290.028C275.503 295.14 279.475 299.983 284.138 304.307C275.778 302.103 267.86 298.952 260.338 294.852C250.93 289.72 241.195 286.222 230.207 286.998C223.376 287.478 217.05 289.381 211.025 292.468C202.78 296.69 194.497 300.809 185.626 303.59C184.532 303.929 183.445 304.281 182.217 304.435C187.078 300.149 190.948 295.089 194.779 289.983L194.772 289.976Z" fill="#FCFCFC"/>
<path d="M420.975 12.87C419.939 14.0103 418.57 13.5619 417.361 13.5171C404.678 13.0686 392.186 14.6446 379.88 17.4889C374.162 18.8086 368.694 21.0059 363.206 23.1968C354.392 26.7202 346.436 31.7107 338.639 36.8548C332.319 41.0253 326.729 46.336 321.037 51.3969C319.259 52.9792 317.609 53.6583 315.389 53.2995C313.764 52.8255 311.404 52.4731 311.046 51.1214C310.637 49.5775 312.939 48.6358 314.155 47.566C331.686 32.1143 351.169 19.7311 372.979 11.3326C385.758 6.41259 399.043 5.74635 412.455 8.94304C415.583 9.68616 418.225 11.3838 420.981 12.8764L420.975 12.87Z" fill="#7FC4EE"/>
<path d="M125.215 592.727C126.904 592.772 127.237 591.254 127.793 590.235C133.409 579.876 136.568 568.71 138.487 557.128C140.201 546.814 140.739 536.442 140.476 526.006C140.233 516.557 137.585 507.633 134.438 498.838C132.871 494.443 131.004 490.177 128.465 486.23C125.753 482.022 122.094 479.453 116.933 479.485C110.907 479.523 109.123 481.362 109.123 487.332C109.123 513.963 109.11 540.6 109.097 567.23C107.991 566.333 108.343 565.078 108.349 563.95C108.471 536.115 108.893 508.274 108.253 480.446C108.215 478.774 108.867 477.966 110.165 477.172C116.523 473.277 123.655 473.834 129.373 478.812C134.029 482.861 136.824 488.139 138.577 493.899C147.512 523.168 148.126 552.426 137.841 581.523C136.076 586.526 133.933 591.503 128.445 593.861C126.827 594.553 125.836 594.425 125.209 592.74L125.215 592.727Z" fill="#C5C5C5"/>
<path d="M251.614 471.727C250.463 473.841 251.397 476.282 250.424 478.511C249.638 480.317 248.857 481.048 246.881 480.426C237.959 477.633 229.01 477.23 220.075 480.414C218.124 481.105 216.877 480.574 216.231 478.472C215.7 476.743 215.086 475.058 215.118 473.219C213.263 466.82 217.498 462.797 221.073 458.741C228.403 450.426 240.645 451.464 246.977 460.586C248.953 463.431 251.851 465.705 251.896 469.587C251.902 470.317 252.151 471.073 251.614 471.727Z" fill="#3878B9"/>
<path d="M500.177 444.315C499.474 450.343 497.536 456.076 495.841 461.842C493.666 469.248 490.59 476.32 487.18 483.251C486.087 485.474 484.916 487.006 482.236 486.608C480.138 486.608 478.047 486.596 475.949 486.596C477.318 481.355 478.085 476.077 477.938 470.612C477.759 463.879 476.608 457.396 474.056 451.188C473.116 448.901 473.525 447.748 476.032 447.089C483.957 445 491.971 443.853 500.184 444.321L500.177 444.315Z" fill="#7EA7D0"/>
<path d="M171.133 53.2611C161.724 58.5975 152.335 63.9531 142.913 69.2638C123.987 79.9365 106.091 91.9674 90.8749 107.701C78.505 120.488 67.2735 134.159 57.6155 149.13C55.1146 153.006 52.7417 157.08 49 160.014C51.7503 151.417 56.3235 143.729 61.1333 136.202C81.6134 104.158 109.833 81.0832 143.905 64.8179C152.066 60.9229 160.285 57.1625 168.702 53.8441C169.482 53.5366 170.231 53.0625 171.139 53.2611H171.133Z" fill="#3C948E"/>
<path d="M417.847 160.667C411.33 154.031 406.929 145.831 401.57 138.342C391.125 123.749 379.004 110.731 365.822 98.585C352.806 86.5862 337.826 77.6431 322.661 68.8025C314.538 64.0684 306.032 59.962 298.318 54.5231C302.508 55.0548 306.083 57.2586 309.837 58.9114C332.806 69.0204 354.635 81.0384 373.241 98.1686C391.899 115.344 407.198 135.043 417.24 158.547C417.528 159.22 417.649 159.956 417.854 160.661L417.847 160.667Z" fill="#3D948D"/>
<path d="M89.8709 514.206C90.0244 517.614 89.743 521.356 90.4977 525.046C90.6448 525.757 90.728 526.609 90.4786 527.249C90.0628 528.319 88.7964 528.691 87.9009 528.806C86.8904 528.934 86.9415 527.627 86.852 526.846C85.3809 513.591 85.3297 500.439 90.9327 487.966C94.9046 479.119 100.648 471.74 109.967 467.986C112.129 467.114 111.24 465.961 110.959 464.718C108.247 452.841 107.818 440.951 110.927 429.074C111.259 427.806 111.003 425.621 113.332 426.224C115.493 426.781 115.014 428.53 114.579 430.157C111.522 441.502 111.835 452.867 114.477 464.231C114.777 465.513 115.314 466.704 117.016 466.544C127.397 465.558 134.739 470.676 140.329 478.677C146.879 488.05 149.303 498.985 151.235 510.029C151.401 510.971 151.414 511.945 151.676 512.855C152.124 514.398 151.241 514.565 150.071 514.892C148.644 515.289 148.254 514.911 148.049 513.502C146.924 505.699 145.235 498.011 142.325 490.676C139.101 482.547 135.008 475.16 126.213 471.56C117.873 468.152 110.748 470.522 104.326 475.795C96.2734 482.399 92.6788 491.528 90.7024 501.484C89.8837 505.603 89.9413 509.741 89.8773 514.206H89.8709Z" fill="#314C68"/>
<path d="M39.5083 598.512C48.3348 598.499 57.155 598.48 65.9815 598.493C67.5038 598.493 68.7894 598.32 70.0366 597.16C79.0743 588.755 86.1675 578.902 92.071 568.121C92.6978 566.98 93.1647 565.834 93.2159 564.527C95.3714 568.787 97.5141 573.06 99.6887 577.314C100.194 578.3 100.303 579.325 100.29 580.408C100.232 585.847 100.117 591.286 100.213 596.724C100.245 598.621 99.6056 599.037 97.8403 599.037C78.9911 599.069 60.1483 599.178 41.2992 599.242C40.6596 599.242 39.7322 599.665 39.5147 598.512H39.5083Z" fill="#C5C5C5"/>
<path d="M427.422 530.619C424.685 524.206 421.097 518.184 418.724 511.592C418.007 509.594 417.854 507.819 418.218 505.731C418.82 502.278 419.562 498.876 420.47 495.5C420.949 493.706 421.864 493.072 423.188 494.898C430.019 504.328 436.978 513.681 440.867 524.847C441.423 526.442 442.811 527.672 442.824 529.485C442.293 533.277 441.762 537.076 441.238 540.869C440.745 541.324 440.24 541.195 439.837 540.798C436.473 537.506 432.699 534.757 428.657 532.374C428.011 531.99 427.473 531.458 427.429 530.619H427.422Z" fill="#7FA7D2"/>
<path d="M144.301 597.275C144.487 598.717 145.593 598.409 146.495 598.409C169.559 598.416 192.623 598.416 216.007 598.416C212.944 593.617 209.247 589.492 205.543 585.398C202.121 581.625 198.431 578.095 194.811 574.501C181.699 561.49 169.265 547.903 158.999 532.432C158.168 532.726 158.718 533.598 158.264 533.995C158.059 530.952 157.861 527.909 157.662 524.975C158.411 524.591 158.673 524.93 158.929 525.276C171.766 542.996 186.873 558.723 202.019 574.412C208.517 581.138 214.619 588.268 222.486 593.521C224.482 594.854 222.883 596.654 222.915 598.204C222.947 599.921 221.399 599.293 220.478 599.287C195.597 599.223 170.717 599.133 145.836 599.005C144.902 599.005 142.613 599.774 144.301 597.269V597.275Z" fill="#C6C6C6"/>
<path d="M450.346 506.999C449.156 503.296 449.041 499.401 447.998 495.628C445.83 487.774 442.888 480.369 438.001 473.841C436.978 472.476 436.741 471.586 438.02 470.33C441.059 467.364 444.02 464.321 447.391 461.727C448.708 460.714 449.54 460.509 450.614 462.284C455.571 470.433 459.159 479.036 459.921 488.645C460.087 490.76 461.366 493.014 459.441 494.988C455.897 498.607 453.154 502.829 450.339 507.006L450.346 506.999Z" fill="#7EA8D1"/>
<path d="M427.422 530.619C432.347 533.604 437.042 536.903 441.238 540.875C440.873 547.454 440.483 554.027 440.285 560.613C439.907 572.925 442.037 584.758 446.303 596.231C447.192 598.614 446.943 599.498 444.244 599.28C441.398 599.043 437.803 600.35 435.859 598.73C433.812 597.019 435.238 593.323 435.11 590.504C434.579 578.435 431.925 566.737 429.258 555.026C428.9 551.913 429.271 551.567 432.13 552.323C432.539 552.432 432.936 552.611 433.345 552.707C433.953 552.855 434.65 553.29 435.174 552.842C435.91 552.214 435.251 551.458 435.034 550.805C433.076 545.046 430.46 539.568 427.947 534.04C427.486 533.034 426.584 532.035 427.32 530.766L427.435 530.619H427.422Z" fill="#4171AD"/>
<path d="M288.59 203.615C286.735 203.262 286.447 202.41 287.777 201.052C288.078 200.751 288.366 200.418 288.717 200.187C293.924 196.824 298.465 192.474 303.998 189.604C309.588 186.702 315.638 185.344 321.855 184.364C332.051 182.762 341.939 184.3 351.648 187.035C358.652 189.002 365.413 191.565 371.86 195.344C380.488 200.399 388.08 206.459 394.905 213.653C402.222 221.366 408.733 229.681 412.82 239.566C413.927 242.25 415.864 245.325 413.767 248.554C408.778 239.701 403.91 230.777 397.463 222.846C383.833 206.075 367.536 193.057 346.084 188.214C324.433 183.32 305.034 188.259 288.602 203.621L288.59 203.615Z" fill="#83C1EB"/>
<path d="M210.174 453.975C205.71 461.938 201.706 470.125 198.533 478.69C197.606 481.195 196.755 480.311 195.623 478.972C188.92 471.003 182.889 462.579 178.111 453.296C177.682 450.907 179.448 451.368 180.676 451.451C183.842 451.669 187.001 452.028 190.155 452.342C195.566 452.886 200.919 452.502 206.305 452.303C207.718 452.252 209.579 451.816 210.168 453.975H210.174Z" fill="#FEFEFE"/>
<path d="M286.108 567.807C284.976 566.526 285.724 564.924 285.2 562.887C274.205 576.045 261.669 587.128 248.678 598.07C249.868 598.851 250.936 598.531 251.921 598.531C285.859 598.518 319.796 598.48 353.74 598.448C356.703 598.448 358.202 596.919 358.236 593.861C358.243 593.233 358.377 592.599 358.454 591.971C358.55 592.157 358.703 592.343 358.722 592.541C359.2 596.927 357.262 599.118 352.908 599.114C316.931 599.076 280.946 598.832 244.969 599.357C244.342 599.364 243.709 599.357 242.007 599.357C255.855 582.413 271.161 567.941 286.102 551.689V567.82L286.108 567.807Z" fill="#C5C5C5"/>
<path d="M288.065 453.879C283.012 463.636 276.616 472.419 269.024 481.093C265.321 471.631 261.438 462.905 256.686 454.603C256.539 453.2 257.518 452.79 258.579 452.495C259.404 452.271 260.274 452.181 261.106 452.31C268.96 453.527 276.725 452.201 284.522 451.586C285.264 451.528 285.999 451.426 286.741 451.496C288.315 451.643 288.756 452.457 288.065 453.879Z" fill="#FEFEFE"/>
<path d="M307.183 499.856C306.032 490.362 317.026 479.049 328.936 479.914C339.086 480.644 348.565 490.247 348.226 501.278C347.939 510.625 339.003 521.753 326.755 521.151C316.182 520.632 306.364 511.541 307.189 499.863L307.183 499.856Z" fill="#323B46"/>
<path d="M365.355 538.37C367.92 543.72 368.131 549.62 369.18 555.308C371.655 568.691 375.032 581.798 379.33 594.719C380.462 598.115 382.004 598.595 385.093 598.557C397.642 598.397 410.204 598.371 422.753 598.614C426.105 598.678 427.147 597.679 426.642 594.527C426.514 593.714 426.751 592.842 426.821 592.003C426.879 592.093 426.968 592.176 426.981 592.272C427.638 596.94 425.676 599.266 421.097 599.248C403.994 599.172 386.891 599.037 369.788 599.076C367.229 599.076 366.391 598.55 366.359 595.802C366.129 577.929 365.681 560.062 365.317 542.188C365.291 540.92 365.342 539.645 365.355 538.377V538.37Z" fill="#C5C5C5"/>
<path d="M210.762 478.831C211.62 480.875 212.067 483.117 213.743 484.751C214.523 485.506 214.402 486.474 214.306 487.448C213.103 499.722 211.907 511.99 210.711 524.264C208.338 523.828 208.115 521.593 207.475 519.972C203.906 510.965 200.369 501.958 196.064 493.264C194.325 489.747 194.644 489.228 198.418 488.216C202.544 487.108 204.98 484.084 207.104 480.689C207.609 479.882 207.974 478.985 208.607 478.248C209.752 476.909 210.321 477.62 210.769 478.831H210.762Z" fill="#FEFEFE"/>
<path d="M255.529 521.067C254.435 509.876 253.347 498.69 252.247 487.505C252.145 486.435 252.024 485.449 252.932 484.565C254.742 482.797 255.049 480.292 255.893 478.05C257.211 477.454 257.901 478.299 258.445 479.248C261.055 483.796 264.086 487.685 269.811 488.53C271.915 488.844 271.442 490.683 270.815 492.118C269.414 495.327 267.994 498.53 266.53 501.714C263.543 508.178 261.419 514.994 258.464 521.464C257.953 522.585 257.806 523.982 256.283 524.354C255.266 523.418 256.251 522.041 255.529 521.067Z" fill="#FDFDFD"/>
<path d="M255.528 521.067C256.488 521.714 255.899 522.887 256.552 523.969C259.308 517.14 261.937 510.478 264.694 503.867C266.408 499.767 268.333 495.763 270.137 491.701C270.585 490.702 271.621 489.337 269.446 489.184C263.683 488.793 260.831 484.751 258.183 480.42C257.588 479.446 257.351 478.165 255.887 478.05C256.411 475.128 256.942 472.207 257.543 468.863C259.654 471.957 260.76 475.167 262.167 478.21C263.018 480.042 263.696 481.97 264.668 483.738C266.606 487.243 269.478 487.781 272.555 485.199C276.085 482.239 278.778 478.498 281.586 474.885C282.82 473.296 283.94 471.624 285.443 470.157C277.377 491.33 267.431 511.612 256.168 531.561C255.951 528.063 255.739 524.565 255.522 521.074L255.528 521.067Z" fill="#C5C5C5"/>
<path d="M210.763 478.831C209.503 477.275 209.01 478.742 208.677 479.504C207.641 481.887 206.1 483.867 204.296 485.686C202.461 487.537 200.446 488.947 197.721 489.203C196.736 489.299 194.984 489.337 195.988 491.246C201.328 501.394 205.045 512.246 209.643 522.72C209.893 523.284 210.353 523.751 210.711 524.264V532.028C206.426 527.627 182.185 476.499 180.637 469.036C183.228 472.476 185.37 475.487 187.692 478.344C189.566 480.651 191.523 482.931 193.704 484.93C197.024 487.973 200.164 487.313 202.147 483.226C204.053 479.305 205.716 475.269 207.513 471.291C207.859 470.529 208.319 469.818 209.036 469.075C209.33 472.406 210.129 475.603 210.756 478.825L210.763 478.831Z" fill="#C5C5C5"/>
<path d="M57.3853 296.139C42.0667 290.047 28.8461 281.911 18.9642 269.015C18.4589 268.356 18.1071 267.542 17.8065 266.754C17.3332 265.498 17.2309 264.134 18.3118 263.186C19.5463 262.103 20.1923 263.628 20.9342 264.14C31.5261 271.437 42.2586 278.509 53.4197 284.916C54.5966 285.588 55.4537 286.395 55.7799 287.734C56.4067 290.297 57.219 292.821 57.3853 296.139Z" fill="#7AC2BF"/>
<path d="M449.035 265.569C448.894 267.215 448.024 268.548 447.02 269.803C437.451 281.77 424.992 289.656 410.997 295.383C409.226 296.107 409.059 295.601 409.29 293.91C409.936 289.086 411.458 285.396 416.351 282.827C426.7 277.382 436.262 270.566 445.875 263.89C446.489 263.461 447.001 262.353 448.011 262.974C448.919 263.532 448.958 264.57 449.035 265.569Z" fill="#7AC2BF"/>
<path d="M251.614 471.727C251.435 468.248 250.354 465.148 247.553 462.925C245.915 461.624 245.589 459.517 244.118 458.056C241.7 455.654 239.02 454.366 235.637 454.507C235.317 454.52 234.991 454.552 234.684 454.5C226.017 452.982 221.841 458.6 217.53 464.712C215.56 467.499 215.17 470.17 215.118 473.213C214.044 467.941 212.611 462.643 215.374 457.467C216.065 456.172 217.223 455.135 218.061 453.911C223.12 446.506 230.482 445.115 238.566 446.448C242.583 447.108 245.167 450.458 248.007 453.206C253.571 458.581 253.041 465.039 251.608 471.72L251.614 471.727Z" fill="#2C5E91"/>
<path d="M130.032 598.666C141.89 591.567 143.86 579.396 146.648 567.954C150.345 552.816 150.723 537.352 149.079 521.855C149.002 521.112 148.919 520.369 148.842 519.626C148.676 518.088 149.789 517.941 150.87 517.774C152.149 517.576 152.501 518.249 152.61 519.414C154.899 543.073 153.601 566.269 143.975 588.428C142.824 591.074 141.218 593.451 139.562 595.815C137.176 599.229 133.997 599.402 130.025 598.666H130.032Z" fill="#908F93"/>
<path d="M302.066 500.343C303.032 503.015 302.879 505.609 302.488 508.261C301.676 513.803 301.548 519.254 304.433 524.392C309.012 532.547 317.609 536.827 327.542 535.763C335.14 534.943 342.579 528.21 345.009 519.965C345.687 517.666 346.954 515.795 349.013 514.398C350.433 522.573 344.299 533.271 333.362 537.832C323.506 541.945 311.635 539.882 303.122 529.376C296.713 521.471 296.585 507.364 302.066 500.343Z" fill="#323B48"/>
<path d="M288.065 453.879C288.052 452.636 287.841 452.188 286.223 452.354C279.808 453.021 273.361 453.456 266.914 453.77C264.502 453.885 262.065 453.424 259.641 453.27C258.452 453.194 257.262 453.238 256.686 454.597C254.87 452.021 253.06 449.446 250.975 446.48C265.391 445.897 279.431 444.475 293.937 443.309C291.865 447.114 290.381 450.708 288.072 453.866L288.065 453.879Z" fill="#C5C5C5"/>
<path d="M193.608 165.568C197.267 164.844 200.97 164.697 204.68 164.633C215.726 164.441 226.785 163.819 237.818 164.178C248.64 164.53 259.494 164.011 270.297 165.107C272.606 165.344 274.857 166.061 277.211 165.856C276.271 169.668 273.661 167.708 271.563 167.509C266.267 165.658 260.786 166.055 255.33 166.19C254.096 166.222 253.603 167.202 253.13 168.195C252.554 169.405 252.407 170.898 250.987 171.571V171.596C249.906 172.359 248.698 172.641 247.393 172.647C238.08 172.679 228.767 172.679 219.455 172.647C218.176 172.647 216.903 172.551 215.886 171.609C215.214 171.238 214.587 170.776 214.37 170.033C213.385 166.6 210.942 166.055 207.731 166.042C203.458 166.023 199.269 166.747 195.022 166.875C194.235 166.785 193.685 166.439 193.621 165.568H193.608Z" fill="#27528C"/>
<path d="M210.174 453.975C207.795 452.566 205.147 453.104 202.736 453.392C195.259 454.283 187.929 453.046 180.554 452.38C179.48 452.284 178.443 451.656 178.117 453.296C176.352 450.195 174.58 447.095 172.469 443.379C187.161 444.34 201.092 446.057 215.7 446.403C213.615 449.26 211.895 451.618 210.174 453.969V453.975Z" fill="#C5C5C5"/>
<path d="M124.429 598.537C121.064 599.934 119.414 597.98 117.764 595.962C106.955 582.72 99.0236 567.871 93.2032 551.843C91.4955 547.14 90.0755 542.349 88.9179 537.48C88.694 536.551 88.5533 535.596 88.3358 534.668C87.8881 532.746 89.2377 531.657 90.5744 531.349C92.1734 530.984 91.6682 532.797 91.86 533.649C96.5803 554.866 105.765 574.002 118.672 591.401C120.438 593.784 122.395 596.026 124.435 598.544L124.429 598.537Z" fill="#8F8F92"/>
<path d="M102.17 508.37C101.812 521.227 101.454 534.085 101.096 546.942C96.5484 535.731 93.9707 524.206 94.4568 512.124C96.3245 505.917 98.4736 499.831 101.883 494.104C102.343 498.908 102.657 503.623 102.17 508.37Z" fill="#FCFCFC"/>
<path d="M68.1947 382.104C68.1499 381.015 69.2053 380.554 69.5635 379.695C69.5635 377.882 69.8257 376.242 72.0259 375.839C75.6269 386.21 80.4303 395.967 86.9799 404.929C78.147 401.118 70.1199 396.114 62.3871 390.579C61.9138 387.818 64.1972 386.864 65.745 385.429C65.9177 385.403 66.0904 385.384 66.2631 385.371C68.6936 386.319 70.331 388.35 72.6975 390.125C70.9002 387.312 70.6828 384.096 68.1947 382.104Z" fill="#80A7D0"/>
<path d="M396.766 379.58C397.169 380.233 397.572 380.893 397.975 381.553C395.704 384.622 395.384 388.722 392.775 391.508C394.77 388.92 397.86 387.351 399.958 384.718C400.38 385.346 400.795 385.98 401.218 386.608C402.746 387.472 404.3 388.312 404.32 390.406C396.638 396.089 388.489 400.97 379.656 404.923C385.841 396.038 390.875 386.659 394.233 376.435C394.662 375.563 395.276 375.461 395.87 376.191C396.664 377.165 397.169 378.267 396.766 379.58Z" fill="#81A7CE"/>
<path d="M65.7449 385.429C65.4251 387.665 62.7771 388.389 62.3869 390.579C53.1894 384.602 45.0664 377.376 37.6086 369.369C39.2077 369.452 40.8323 369.503 42.2842 368.741C44.4524 367.6 46.1857 368.446 47.7784 369.823C53.7842 375.006 59.7582 380.227 65.7385 385.429H65.7449Z" fill="#26528A"/>
<path d="M404.32 390.406C403.283 389.138 402.254 387.87 401.218 386.608C401.589 383.417 404.582 382.444 406.482 380.643C410.473 376.864 414.854 373.5 418.915 369.785C420.438 368.395 421.774 367.754 423.706 368.696C425.273 369.465 427 369.401 428.701 369.439C421.512 377.517 413.319 384.429 404.32 390.406Z" fill="#25528D"/>
<path d="M354.488 432.63C354.136 446.698 351.661 460.234 344.562 472.617C344.248 473.168 343.928 473.719 343.577 474.251C342.873 475.308 341.965 476.128 340.692 475.263C339.464 474.43 339.777 473.296 340.417 472.169C342.508 468.479 344.357 464.699 345.873 460.695C349.493 451.105 350.753 441.195 350.798 431.041C350.798 430.086 350.747 429.106 350.932 428.184C351.226 426.717 352.525 425.935 353.74 426.044C354.955 426.153 354.412 427.614 354.469 428.485C354.565 429.862 354.495 431.246 354.495 432.63H354.488Z" fill="#314C65"/>
<path d="M330.286 441.06C327.682 440.535 325.7 442.233 323.499 443.046C315.472 446.012 307.362 448.62 298.9 450.016C299.418 447.851 300.007 445.698 300.422 443.514C300.665 442.239 301.542 442.111 302.495 441.964C310.701 440.676 318.811 438.959 326.8 436.698C328.226 436.294 329 436.531 329.339 438.043C329.569 439.068 329.966 440.054 330.292 441.06H330.286Z" fill="#C5C5C5"/>
<path d="M167.877 450.689C166.681 449.715 165.236 449.613 163.79 449.279C154.413 447.127 145.261 444.251 136.46 440.317C137.385 437.592 139.184 436.587 141.858 437.3C148.708 439.132 155.629 440.669 162.639 441.701C164.929 442.04 166.253 442.713 166.54 445.186C166.758 447.05 167.417 448.857 167.883 450.689H167.877Z" fill="#C5C5C5"/>
<path d="M120.572 461.605C118.596 462.015 117.758 461.233 117.508 459.19C116.549 451.317 116.824 443.495 117.924 435.666C118.18 433.866 118.999 432.758 120.598 432.098C126.028 432.207 128.554 435.718 126.584 440.439C124.064 446.461 122.369 452.636 122.836 459.26C122.939 460.753 123.092 462.54 120.572 461.611V461.605Z" fill="#FBFBFA"/>
<path d="M427.307 530.766C430.46 537.704 433.799 544.559 436.3 551.779C436.537 552.464 437.208 553.162 436.697 553.861C436.006 554.802 435.149 553.982 434.381 553.809C433.563 553.617 432.686 553.495 431.957 553.105C429.655 551.862 429.149 552.983 429.245 555.033C427.346 549.114 425.484 543.188 423.527 537.288C422.363 533.784 421.052 530.331 419.811 526.852C422.158 528.447 425.222 528.671 427.301 530.779L427.307 530.766Z" fill="#26528C"/>
<path d="M306.703 515.007C315.357 525.186 325.571 528.031 337.897 523.707C334.129 529.869 326.684 532.618 319.578 530.766C312.153 528.832 306.946 522.694 306.703 515.007Z" fill="#8E8E92"/>
<path d="M470.691 442.867C470.762 443.283 470.755 443.732 470.909 444.116C472.559 448.19 472.578 448.229 468.37 449.971C462.818 452.265 457.324 454.667 452.45 458.267C450.582 459.645 448.804 459.959 447.467 457.582C446.988 456.723 446.329 456.397 445.395 456.48C453.045 450.484 461.27 445.564 470.691 442.867Z" fill="#26518D"/>
<path d="M193.608 165.568C193.979 165.882 194.35 166.19 194.721 166.503C195.885 167.208 196.352 168.4 196.794 169.591C197.542 171.622 196.947 173.051 194.683 173.095C189.835 173.185 185.044 174.178 180.177 173.871C178.993 173.794 177.887 173.537 176.883 172.903V172.89C175.616 170.52 175.597 167.048 171.676 167.048C176.365 166.651 181.053 166.209 185.748 165.869C188.357 165.683 190.986 165.664 193.602 165.568H193.608Z" fill="#26518C"/>
<path d="M436.946 464.123C436.991 465.231 436.23 465.891 435.507 466.48C433.901 467.787 433.415 468.972 435.296 470.516C436.92 471.848 435.213 472.938 434.579 473.674C432.021 476.647 429.75 479.831 427.314 482.886C425.503 485.161 423.994 487.608 422.836 490.157C421.608 492.867 420.649 492.489 419.101 490.721C418.596 490.145 417.982 489.747 417.176 489.741C420.214 483.796 424.346 478.607 428.567 473.501C431.234 470.273 433.518 466.679 436.952 464.123H436.946Z" fill="#26528B"/>
<path d="M271.499 167.144C273.354 166.51 275.855 168.752 277.205 165.856C283.019 165.677 288.788 166.254 294.538 167.035C290.752 167.189 291.11 170.981 289.376 172.935C286.114 174.319 282.712 173.96 279.341 173.678C277.55 173.531 275.766 173.256 273.956 173.204C272.478 173.16 270.77 173.249 270.067 171.628C269.293 169.854 270.124 168.348 271.506 167.138L271.499 167.144Z" fill="#25528C"/>
<path d="M440.688 356.428C439.767 355.634 438.647 356.101 437.63 355.941C436.85 355.819 435.724 356.383 435.385 355.339C435.091 354.416 436.134 353.917 436.703 353.34C439.005 350.983 441.314 348.638 443.681 346.351C444.947 345.127 445.753 344.064 444.308 342.328C443.009 340.771 443.188 339.247 444.634 337.523C446.828 334.91 449.086 332.456 451.81 330.38C452.783 329.637 454.484 329.189 454.158 327.337C454.35 327.421 454.593 327.453 454.727 327.594C457.503 330.425 457.477 330.38 454.17 332.328C452.085 333.558 450.007 334.839 448.081 336.3C445.069 338.593 445.178 341.822 448.446 343.724C450.237 344.769 450.442 345.422 449.028 346.947C446.175 350.035 443.796 353.545 440.694 356.422L440.688 356.428Z" fill="#285187"/>
<path d="M11.9542 327.767C14.6725 330.368 17.3652 332.994 20.1091 335.569C22.2582 337.581 23.9084 339.625 21.9 342.712C21.254 343.705 21.6058 344.737 22.4373 345.602C24.6247 347.882 26.7738 350.208 28.9804 352.469C29.7672 353.276 31.3086 353.744 30.9952 355.064C30.6242 356.639 29.0444 355.775 27.9954 355.941C27.2663 356.056 26.5052 355.973 25.9871 356.652C22.7891 353.699 20.2179 350.188 17.4356 346.87C16.4506 345.698 16.5273 344.852 17.9792 343.827C21.932 341.034 21.7529 338.689 17.7746 335.723C15.1202 333.744 12.1332 332.392 9.23584 330.675C9.83707 329.432 10.7837 328.497 11.9542 327.767Z" fill="#265189"/>
<path d="M120.572 461.605C121.518 461.4 122.19 461.317 122.036 459.837C121.314 452.668 123.053 445.942 126.092 439.497C127.147 437.261 127.236 435.378 124.403 434.295C123.053 433.776 121.857 432.841 120.597 432.092C121.774 430.349 123.181 430.798 124.742 431.547C126.725 432.508 129.609 432.79 130.575 434.334C131.605 435.98 129.616 438.402 129.021 440.509C127.371 446.326 125.919 452.181 125.298 458.21C124.857 462.527 124.902 462.534 120.572 461.605Z" fill="#C5C5C5"/>
<path d="M102.171 508.37V494.872C99.158 500.51 97.7508 506.73 94.4569 512.124C94.1435 501.721 97.7572 489.856 103.437 483.7C102.97 492.271 103.047 500.337 102.171 508.37Z" fill="#C3C3C3"/>
<path d="M344.331 448.773C343.96 452.143 342.943 455.32 341.53 458.466C340.442 450.586 338.466 442.989 335.805 435.564C335.453 434.584 335.479 433.981 336.547 433.584C338.728 432.764 340.903 431.919 343.052 431.009C344.312 430.477 345.054 431.073 345.726 431.996C345.291 433.635 343.813 434.167 342.566 434.872C340.826 435.852 340.155 436.947 341.197 438.953C342.796 442.028 343.474 445.442 344.331 448.78V448.773Z" fill="#C3C3C3"/>
<path d="M150.026 487.172C149.201 485.398 148.369 483.623 147.301 481.33C152.252 482.873 156.569 484.232 160.899 485.551C161.922 485.865 161.884 486.423 161.558 487.236C159.824 491.618 157.304 495.564 154.663 499.414C153.883 500.555 153.895 499.241 153.703 498.799C153.844 496.083 154.509 493.399 154.298 490.663C154.087 487.851 152.962 486.948 150.019 487.172H150.026Z" fill="#C2C2C2"/>
<path d="M41.9453 295.236C40.8836 297.151 43.4484 297.094 43.6595 298.561C42.5593 298.945 41.7406 298.221 40.9539 297.747C33.2915 293.122 25.629 288.49 18.3759 283.237C17.6403 282.706 17.0647 282.782 16.3547 282.904C18.1073 278.932 18.0241 279.035 21.4396 281.834C27.1705 286.543 33.4322 290.463 40.0905 293.724C40.8452 294.096 41.7343 294.217 41.9453 295.23V295.236Z" fill="#2A5180"/>
<path d="M525.295 451.477C519.615 448.075 513.564 445.775 507.002 444.68C504.77 444.308 502.557 444.545 500.369 444.167C501.066 442.758 500.587 441.035 501.578 439.709C511.153 440.74 519.404 444.635 526.375 451.272C526.017 451.342 525.659 451.413 525.301 451.483L525.295 451.477Z" fill="#295087"/>
<path d="M72.0258 375.839C70.6251 376.755 70.5483 378.51 69.5633 379.695C66.135 375.006 65.3227 369.279 63.4295 363.981C62.9946 362.77 64.1906 362.36 65.2012 362.379C67.0177 362.405 67.6061 361.393 67.6189 359.791C69.09 365.14 70.5547 370.49 72.0258 375.839Z" fill="#28508B"/>
<path d="M449.802 282.315C445.037 285.441 440.317 288.638 435.494 291.674C431.784 294.006 427.947 296.126 424.077 298.394C423.553 296.831 425.9 296.396 424.736 295.05C428.868 292.571 433.025 290.149 437.112 287.6C440.24 285.652 443.246 283.506 445.977 281.021C448.056 279.131 449.278 279.669 449.802 282.321V282.315Z" fill="#2C5081"/>
<path d="M396.766 379.58C395.666 378.741 396.529 376.306 394.227 376.435C395.877 370.65 397.527 364.871 399.184 359.087C399.344 360.195 398.973 361.726 400.527 361.969C403.552 362.45 402.887 364.391 402.318 366.21C401.09 370.137 399.766 374.039 398.442 377.934C398.173 378.722 397.879 379.599 396.772 379.58H396.766Z" fill="#275189"/>
<path d="M344.331 448.773C341.779 445.288 341.914 440.682 339.477 437.127C338.805 436.147 339.886 435.679 340.602 435.231C342.317 434.161 344.018 433.078 345.726 431.995C346.819 432.431 346.5 433.373 346.436 434.154C346.02 439.068 345.521 443.969 344.331 448.773Z" fill="#F9F9F9"/>
<path d="M353.823 519.069C354.834 526.487 353.062 533.181 347.951 538.652C346.365 540.35 347.76 542.669 345.988 543.995C345.956 541.561 346.474 539.082 345.419 536.737C345.054 535.93 345.259 535.315 345.841 534.725C350.145 530.343 352.429 524.93 353.823 519.062V519.069Z" fill="#C5C5C5"/>
<path d="M314.238 543.784H293.508C294.244 541.823 295.44 540.446 297.998 540.773C303.083 541.426 308.398 539.857 313.291 542.368C313.643 542.547 313.982 542.759 314.321 542.951C314.295 543.226 314.263 543.502 314.238 543.784Z" fill="#B8B8B7"/>
<path d="M150.026 487.172C150.371 486.717 149.597 485.334 151.004 485.788C153.083 486.461 155.29 487.089 155.213 490.01C155.136 493.021 155.347 496.064 153.71 498.799C152.482 494.924 151.254 491.048 150.026 487.172Z" fill="#F6F6F6"/>
<path d="M108.279 591.01C110.396 593.643 112.321 596.026 114.336 598.531C106.731 599.466 107.185 600.075 108.279 591.01Z" fill="#F3F3F3"/>
<path d="M334.168 542.541C335.639 541.823 337.078 541.035 338.587 540.427C339.317 540.132 340.359 539.818 340.449 541.24C340.506 542.156 340.34 542.996 339.169 543.015C337.539 543.047 335.907 543.021 334.27 543.021C334.232 542.861 334.2 542.701 334.161 542.534L334.168 542.541Z" fill="#B6B5B5"/>
<path d="M303.128 536.34C301.657 536.698 300.499 537.07 299.233 536.807C300.512 533.579 300.704 533.547 303.128 536.34Z" fill="#929293"/>
<path d="M307.375 485.321C306.761 486.557 306.588 487.793 305.379 487.89C304.746 487.941 304.401 487.018 304.554 486.41C304.893 485.058 305.974 485.141 307.375 485.321Z" fill="#9C9C9C"/>
<path d="M233.27 130.738C228.601 130.597 223.919 130.872 219.314 129.668C216.397 128.906 214.99 127.4 215.272 124.229C215.617 120.308 215.604 116.356 215.867 112.422C215.995 110.526 215.323 109.918 213.481 110.283C210.251 110.917 206.995 111.442 203.759 112.032C199.448 112.813 196.71 111.167 196.18 106.958C195.502 101.564 195.463 96.1058 196.275 90.7054C196.762 87.4574 198.437 85.3562 202.153 85.1576C206.074 84.9526 209.957 84.1518 213.877 83.8828C215.905 83.7418 216.34 82.877 216.327 81.0832C216.289 76.7142 216.474 72.3452 216.404 67.9826C216.372 65.9326 217.216 64.6962 219.071 64.1901C228.512 61.602 237.971 61.6468 247.405 64.1901C249.343 64.709 250.284 66.0287 250.233 68.2324C250.124 72.595 250.335 76.9705 250.284 81.3331C250.265 83.082 250.84 83.729 252.631 83.8699C256.763 84.2031 260.863 84.9206 264.988 85.2345C267.783 85.4459 269.363 86.9257 269.926 89.4113C271.32 95.6189 271.256 101.897 270.073 108.117C269.485 111.212 266.811 112.711 263.498 112.179C260.038 111.615 256.584 110.975 253.143 110.289C251.32 109.93 250.655 110.488 250.763 112.397C251 116.439 250.974 120.494 251.25 124.53C251.441 127.394 250.175 128.79 247.533 129.559C242.839 130.93 238.048 130.565 233.277 130.731L233.27 130.738Z" fill="#050304"/>
<path d="M215.873 171.609C227.571 171.609 239.276 171.609 250.975 171.603C247.207 179.662 243.35 187.663 238.093 194.896C234.882 199.316 231.358 199.303 228.288 194.697C223.414 187.4 218.745 179.989 215.873 171.609Z" fill="#4B7AA9"/>
<path d="M176.876 172.903C182.786 173.307 188.651 172.154 194.549 172.288C196.525 172.333 196.614 171.513 196.039 169.982C195.604 168.822 194.51 167.906 194.715 166.503C200.446 164.812 206.324 165.241 212.17 165.318C213.711 165.338 213.82 167.061 214.389 168.124C214.984 169.232 215.38 170.443 215.867 171.603C210.353 171.308 204.891 172.192 199.397 172.231C197.408 172.243 197.011 173.083 197.625 174.831C198.495 177.311 199.237 179.841 200.119 182.32C200.759 184.12 200.606 185.652 199.039 186.875C197.484 188.092 195.802 187.849 194.28 186.971C187.737 183.211 181.622 178.899 176.883 172.897L176.876 172.903Z" fill="#4777AB"/>
<path d="M271.499 167.144C270.508 172.167 270.534 171.859 275.823 172.372C280.345 172.807 284.854 172.794 289.37 172.942C285.257 178.316 280.083 182.429 274.243 185.76C273.693 186.074 273.156 186.427 272.587 186.709C270.828 187.58 268.947 188.381 267.272 186.811C265.653 185.299 266.184 183.224 266.677 181.411C267.316 179.066 268.174 176.773 269.095 174.524C269.824 172.749 269.21 172.32 267.489 172.205C261.989 171.846 256.494 171.487 250.981 171.571C252.791 165.203 252.791 165.325 259.411 165.19C263.133 165.113 266.779 165.888 270.483 165.844C271.493 165.831 271.877 166.145 271.506 167.138L271.499 167.144Z" fill="#4071AE"/>
<path d="M234.396 434.065C223.887 433.68 214.543 432.457 205.204 431.188C195.674 429.894 186.144 428.543 176.665 426.922C166.444 425.173 156.255 423.245 146.092 421.182C132.884 418.504 121.039 412.726 109.903 405.551C102.094 400.515 96.3117 393.052 92.7235 384.602C85.6559 367.946 81.6648 350.361 79.0552 332.462C77.9679 325.018 76.6759 317.613 75.4734 310.182C75.3071 309.144 74.8338 307.952 75.6205 307.119C76.5607 306.133 77.6672 307.139 78.5563 307.465C86.82 310.515 94.9494 313.968 103.315 316.697C111.56 319.387 120.079 321.277 128.689 322.417C137.496 323.583 146.271 325.255 155.2 325.185C169.022 325.076 182.262 322.136 195.137 317.094C204.399 313.468 213.398 309.176 222.953 306.267C232.675 303.308 241.815 305.223 250.866 308.824C259.833 312.385 268.704 316.223 277.793 319.445C286.063 322.373 294.679 323.897 303.473 324.73C312.025 325.544 320.327 324.365 328.763 323.564C337.021 322.776 345.176 321.431 353.158 319.573C361.575 317.613 369.788 314.576 377.853 311.303C381.767 309.714 385.758 308.311 389.647 306.671C391.528 305.877 391.764 306.831 391.521 308.196C390.984 311.213 390.121 314.186 389.692 317.216C388.374 326.549 387.274 335.909 385.324 345.147C383.142 355.48 380.2 365.595 377.316 375.749C374.162 386.851 368.15 396.114 359.452 403.251C351.322 409.926 341.779 414.545 331.789 417.998C318.626 422.546 304.823 424.308 291.212 426.723C278.42 428.991 265.519 430.746 252.586 432.226C246.165 432.963 239.737 433.424 234.39 434.071L234.396 434.065Z" fill="#79C2BE"/>
<path d="M341.121 262.532C340.231 270.342 337.878 277.568 332.16 283.224C325.565 289.752 316.956 289.733 310.208 283.397C305.386 278.875 302.655 273.16 300.953 266.895C300.339 264.634 299.981 262.308 299.508 260.008C298.312 250.534 299.61 241.405 303.365 232.635C304.804 229.278 306.761 226.267 309.364 223.698C312.863 220.251 317.078 218.989 321.907 219.63C322.7 219.329 323.045 219.938 323.416 220.418C326.781 224.793 330.599 228.637 335.677 231.046C336.228 231.309 336.848 231.603 336.669 232.43C340.634 240.892 341.632 249.848 341.121 259.06C341.057 260.213 341.121 261.379 341.121 262.539V262.532Z" fill="black"/>
<path d="M336.669 232.423C330.471 229.637 325.603 225.312 321.913 219.63C321.113 216.811 319.553 213.871 322.214 211.302C325.041 208.573 328.347 209.502 331.469 210.713C336.752 212.769 340.973 216.267 344.101 220.975C346.007 223.845 347.785 227.042 345.623 230.444C343.442 233.871 339.943 233 336.675 232.423H336.669Z" fill="#FDFDFD"/>
<path d="M167.34 259.361C166.169 263.218 165.766 267.267 164.244 271.046C162.926 274.32 161.359 277.408 159.191 280.213C150.505 291.45 137.425 290.547 130.377 278.183C127.051 272.347 125.42 266.024 125.081 259.342C124.614 257.183 124.659 255.024 125.055 252.865C125.055 251.623 125.049 250.38 125.043 249.143C126.309 245.031 126.469 240.649 128.189 236.619C128.804 235.171 129.386 233.717 130.134 232.327C130.159 231.27 131.01 230.931 131.739 230.559C135.878 228.458 139.37 225.613 142.069 221.802C142.587 221.071 143.06 220.098 144.25 220.226C148.74 218.509 152.642 219.931 156.031 222.814C162.555 228.362 165.018 236.036 166.649 244.082C167.679 249.143 167.173 254.268 167.333 259.368L167.34 259.361Z" fill="black"/>
<path d="M144.25 220.219C140.636 225.53 135.98 229.624 130.134 232.321C126.878 233.013 123.412 233.903 121.084 230.662C118.698 227.343 120.431 224.095 122.299 221.206C125.817 215.767 130.716 211.994 136.927 210.078C139.664 209.233 142.504 209.073 144.551 211.552C146.501 213.909 145.823 216.529 144.679 219.054C144.506 219.431 144.391 219.835 144.25 220.226V220.219Z" fill="#FDFDFD"/>
<path d="M420.092 367.568C414.502 366.812 409.897 364.442 404.908 363.449C403.584 363.187 403.591 361.931 403.923 360.823C405.234 356.454 406.181 352.001 406.942 347.504C407.204 345.98 407.774 345.544 409.315 346.441C416.332 350.502 423.834 353.295 431.823 354.705C432.475 354.82 433.147 354.923 433.415 355.57C433.78 356.454 433.019 356.909 432.494 357.402C429.488 360.233 426.444 363.014 423.489 365.896C422.35 367.005 421.212 367.799 420.086 367.568H420.092Z" fill="#7EA7D0"/>
<path d="M399.958 384.711C400.162 386.563 398.685 387.223 397.546 388.126C395.819 389.503 394.105 390.9 392.007 392.591C393.53 389.08 394.866 386.037 396.152 382.975C396.51 382.117 396.958 381.495 397.981 381.54C398.64 382.597 399.299 383.648 399.958 384.705V384.711Z" fill="#EAF7FC"/>
<path d="M46.6912 367.575C45.6678 367.6 44.8555 367.274 44.0496 366.627C40.5765 363.821 37.4936 360.611 34.302 357.498C33.0932 356.319 32.767 355.262 34.7625 354.897C42.7576 353.449 50.1578 350.47 57.1615 346.428C58.5174 345.646 59.2466 345.903 59.5792 347.504C60.5002 351.95 61.5236 356.377 62.4446 360.829C62.6365 361.752 62.7133 362.943 61.5939 363.321C56.6946 364.98 51.7696 366.588 46.6848 367.568L46.6912 367.575Z" fill="#7EA7D3"/>
<path d="M68.1947 382.104C68.764 381.937 69.442 381.393 69.8449 382.245C71.2457 385.249 72.5824 388.286 73.6442 391.553C71.0602 389.561 68.1883 388.043 66.2695 385.371C66.9155 384.282 67.5551 383.193 68.2011 382.104H68.1947Z" fill="#EEF4F8"/>
<path d="M357.782 266.754C357.565 273.231 355.198 278.9 351.22 283.948C350.842 284.429 350.228 284.723 349.736 285.114C348.271 286.28 346.672 286.85 345.163 285.39C343.596 283.878 343.999 282.007 344.996 280.412C346.512 277.991 348.207 275.678 349.889 273.359C352.569 269.669 354.162 265.588 354.533 261.033C354.584 260.418 354.488 259.656 355.307 259.489C356.285 259.297 356.554 260.136 356.842 260.796C357.661 262.686 357.878 264.691 357.782 266.754Z" fill="#F7FCFB"/>
<path d="M108.579 265.767C108.816 264.422 109.11 262.539 109.507 260.675C109.635 260.072 110.006 259.425 110.792 259.464C111.656 259.502 111.675 260.233 111.765 260.86C112.852 268.516 116.984 274.634 121.634 280.489C122.843 282.007 123.015 283.641 121.838 285.159C120.636 286.703 119.005 286.363 117.495 285.588C116.76 285.21 116.012 284.717 115.493 284.083C111.272 278.919 108.867 273.019 108.579 265.767Z" fill="#F8FCFA"/>
<path d="M125.056 252.859C125.375 255.018 125.35 257.177 125.081 259.336C124.301 257.177 124.365 255.018 125.056 252.859Z" fill="#3F5366"/>
<path d="M344.331 500.555C345.003 509.094 336.72 517.352 327.497 517.256C317.96 517.153 311.328 510.119 310.899 500.414C310.567 492.982 317.679 483.674 327.74 483.693C337.04 483.713 344.964 492.22 344.331 500.555Z" fill="#030305"/>
<path d="M245.954 114.594C245.954 117.048 245.826 119.508 245.992 121.942C246.139 124.107 245.397 124.806 243.203 125.043C236.404 125.773 229.644 125.734 222.851 124.985C220.945 124.774 220.331 124.223 220.325 122.314C220.299 117.086 220.478 111.871 221.048 106.689C221.239 104.908 220.728 104.235 219.09 104.453C214.306 105.1 209.509 105.709 204.757 106.567C202.448 106.984 201.322 106.849 200.945 104.056C200.407 100.09 200.874 96.2083 201.021 92.2877C201.079 90.7438 201.962 90.526 203.241 90.2057C208.415 88.9052 213.769 89.0077 218.994 88.066C221.086 87.688 221.662 86.8937 221.655 85.0295C221.655 80.6604 221.757 76.2914 221.738 71.9224C221.732 69.9493 222.352 68.9179 224.489 68.3926C230.642 66.8807 236.705 67.2843 242.807 68.5335C244.495 68.8794 244.623 70.0069 244.617 71.3843C244.611 75.433 244.636 79.4817 244.694 83.5304C244.732 86.1826 245.416 87.8866 248.691 88.3287C253.424 88.9693 258.234 88.918 262.91 90.0647C264.669 90.4939 265.538 91.0257 265.826 93.0628C266.395 97.1436 265.462 101.122 265.577 105.151C265.622 106.618 264.656 106.843 263.389 106.574C259.136 105.651 254.742 105.721 250.482 104.69C246.171 103.646 245.723 104.146 245.807 108.508C245.845 110.533 245.807 112.557 245.807 114.581C245.858 114.581 245.909 114.581 245.96 114.581L245.954 114.594Z" fill="#C1231F"/>
<path d="M354.527 372.636C350.983 377.504 345.54 379.65 340.417 382.027C329.352 387.171 317.583 389.593 305.431 390.618C291.282 391.809 277.275 390.727 263.21 389.413C256.366 388.773 249.459 388.363 242.538 388.517C233.712 388.715 224.866 388.28 216.059 388.683C206.125 389.138 196.224 390.471 186.291 390.945C178.245 391.329 170.173 391.457 162.095 390.708C155.219 390.073 148.44 389.144 141.749 387.447C132.13 385 123.009 381.425 114.822 375.704C113.607 374.852 112.43 373.936 111.707 372.578C112.174 372.123 112.743 372.046 113.357 372.142C128.209 378.376 143.706 381.944 159.741 383.142C174.401 384.237 189.061 383.744 203.746 383.308C216.711 382.924 229.689 381.861 242.666 382.559C261.368 383.571 280.096 384.269 298.798 383.654C316.854 383.065 334.552 379.99 351.329 372.821C352.39 372.661 353.407 371.726 354.539 372.623L354.527 372.636Z" fill="#3A948E"/>
<path d="M371.745 336.056C371.636 338.055 370.062 338.657 368.585 339.234C355.537 344.307 342.06 347.184 328.021 347.728C312.587 348.324 297.397 346.71 282.251 343.955C260.748 340.047 239.007 339.17 217.235 340.099C203.381 340.688 189.662 343.013 175.987 345.313C161.033 347.831 146.06 348.266 130.965 347.12C119.651 346.261 108.861 343.487 98.3519 339.349C96.7913 338.734 95.5824 337.812 95.0452 336.159C96.4075 335.326 97.4885 336.434 98.6206 336.78C115.813 342.033 133.325 343.539 151.254 342.373C165.811 341.425 180.285 340.003 194.676 337.735C204.654 336.159 214.6 334.333 224.623 333.052C230.968 332.238 237.357 332.213 243.702 333.18C258.004 335.358 272.228 338.036 286.575 339.874C295.638 341.034 304.772 341.54 313.873 342.315C326.051 343.353 338.076 342.495 350.12 340.976C356.388 340.188 362.381 338.395 368.38 336.537C369.468 336.204 370.51 335.499 371.725 336.056H371.745Z" fill="#3B948E"/>
<path d="M371.745 336.056C354.75 343.135 336.867 344.186 318.824 343.564C301.279 342.962 283.869 340.778 266.562 337.856C258.074 336.421 249.599 334.846 241.061 333.789C231.467 332.603 221.988 334.192 212.528 335.8C187.148 340.105 161.724 344.109 135.865 343.628C121.883 343.372 108.119 341.623 95.0644 336.152C94.5464 335.832 94.0283 335.512 93.5166 335.191C93.8108 334.525 94.2841 334.788 94.6039 334.878C118.717 341.905 143.201 340.823 167.749 338.279C186.163 336.37 204.283 332.424 222.634 330.092C234.025 328.644 245.308 329.977 256.584 331.918C282.686 336.421 308.814 340.752 335.466 340.124C347.542 339.842 359.426 338.459 371.047 335.07C371.802 334.852 372.589 334.724 373.523 334.519C373.209 335.666 372.218 335.512 371.757 336.05L371.745 336.056Z" fill="#030506"/>
<path d="M332.115 399.433C328.558 403.405 323.8 405.557 319.124 407.722C305.315 414.103 290.713 417.377 275.593 418.786C264.918 419.785 254.204 420.599 243.523 420.413C234.933 420.266 226.356 421.009 217.785 420.535C200.976 419.606 184.072 419.292 167.666 414.872C157.304 412.085 147.179 408.626 138.103 402.694C136.434 401.604 134.95 400.221 133.383 398.972C134.541 397.882 135.609 398.843 136.619 399.202C151.382 404.423 166.272 409.132 181.795 411.617C193.685 413.52 205.639 414.513 217.677 414.532C229.068 414.558 240.459 414.654 251.844 414.513C272.388 414.263 292.53 411.284 312.159 405.057C317.628 403.321 323.09 401.566 328.501 399.657C329.614 399.266 330.842 398.363 332.102 399.439L332.115 399.433Z" fill="#3C948E"/>
<path d="M351.904 373.135C342.476 378.036 332.275 380.381 321.932 382.239C302.412 385.736 282.737 385.294 263.076 384.263C237.217 382.905 211.396 384.18 185.562 384.846C165.901 385.358 146.47 383.885 127.505 378.28C122.504 376.8 117.643 374.923 112.961 372.597C112.948 371.444 113.639 371.617 114.361 371.854C138.609 380.643 163.713 382.617 189.227 381.258C218.38 379.708 247.527 379.695 276.674 381.22C297.506 382.303 318.139 381.31 338.472 376.153C342.572 375.115 346.57 373.853 350.555 372.514C351.175 372.354 351.923 371.918 351.898 373.142L351.904 373.135Z" fill="#020608"/>
<path d="M332.115 399.433C326.377 401.361 320.653 403.321 314.909 405.218C292.05 412.751 268.512 415.641 244.527 415.602C227.072 415.576 209.605 415.98 192.22 414.065C177.375 412.431 162.888 409.074 148.74 404.276C143.61 402.54 138.506 400.74 133.396 398.965C131.17 398.03 128.951 397.101 126.725 396.166C128.938 396.038 131.017 396.371 133.051 397.088C153.384 404.231 174.03 410.516 195.617 411.784C231.223 413.885 266.894 415.307 302.009 406.563C312.543 403.943 322.943 400.874 333.176 397.248C335.351 396.473 337.583 396.006 339.95 396.044C337.34 397.171 334.724 398.299 332.115 399.433Z" fill="#030B0B"/>
<path d="M351.904 373.135C351.456 372.924 351.009 372.713 350.561 372.508C353.401 371.233 356.234 369.964 359.074 368.689C359.183 368.869 359.292 369.055 359.4 369.234C357.776 370.368 356.151 371.502 354.527 372.636C353.65 372.802 352.78 372.969 351.904 373.135Z" fill="#0E292B"/>
<path d="M114.368 371.854C113.863 372.034 113.223 371.95 112.967 372.597C112.545 372.597 112.123 372.591 111.701 372.584C110.012 371.406 108.324 370.233 106.635 369.055C106.763 368.811 106.891 368.568 107.019 368.324C109.468 369.503 111.918 370.675 114.374 371.854H114.368Z" fill="#1C4F4D"/>
<path d="M327.599 488.325C334.424 488.325 339.739 493.604 339.784 500.414C339.822 507.249 334.302 512.739 327.414 512.707C320.659 512.675 315.485 507.339 315.466 500.401C315.453 493.591 320.743 488.325 327.593 488.332L327.599 488.325Z" fill="#8F9092"/>
<path d="M327.337 504.04C324.753 503.995 323.352 502.765 323.263 500.343C323.173 497.96 324.44 496.5 326.806 496.237C329.019 495.987 331.028 497.883 330.944 500.106C330.861 502.483 329.537 503.79 327.331 504.04H327.337Z" fill="#060709"/>
</g>
<defs>
<clipPath id="clip0_89_7323">
<rect width="554" height="607" fill="white"/>
</clipPath>
</defs>
</svg>
