<svg width="589" height="188" viewBox="0 0 589 188" fill="none" xmlns="http://www.w3.org/2000/svg">
<g filter="url(#filter0_di_49_6481)">
<path fill-rule="evenodd" clip-rule="evenodd" d="M245.102 49.5929C245.102 22.3132 267.217 0.19873 294.496 0.19873C321.776 0.19873 343.89 22.3133 343.89 49.5929V92.0993H536.789C565.099 92.0993 588.049 115.049 588.049 143.359V177.586H0.942871V143.359C0.942871 115.049 23.8927 92.0993 52.2027 92.0993H245.102V49.5929ZM327.131 51.2159C327.131 69.2396 312.519 83.8507 294.496 83.8507C276.472 83.8507 261.861 69.2396 261.861 51.2159C261.861 33.1922 276.472 18.5811 294.496 18.5811C312.519 18.5811 327.131 33.1922 327.131 51.2159Z" fill="#D63641"/>
</g>
<defs>
<filter id="filter0_di_49_6481" x="0.942871" y="0.19873" width="587.106" height="187.64" filterUnits="userSpaceOnUse" color-interpolation-filters="sRGB">
<feFlood flood-opacity="0" result="BackgroundImageFix"/>
<feColorMatrix in="SourceAlpha" type="matrix" values="0 0 0 0 0 0 0 0 0 0 0 0 0 0 0 0 0 0 127 0" result="hardAlpha"/>
<feOffset dy="10.252"/>
<feComposite in2="hardAlpha" operator="out"/>
<feColorMatrix type="matrix" values="0 0 0 0 0 0 0 0 0 0 0 0 0 0 0 0 0 0 1 0"/>
<feBlend mode="normal" in2="BackgroundImageFix" result="effect1_dropShadow_49_6481"/>
<feBlend mode="normal" in="SourceGraphic" in2="effect1_dropShadow_49_6481" result="shape"/>
<feColorMatrix in="SourceAlpha" type="matrix" values="0 0 0 0 0 0 0 0 0 0 0 0 0 0 0 0 0 0 127 0" result="hardAlpha"/>
<feOffset dx="15.378"/>
<feComposite in2="hardAlpha" operator="arithmetic" k2="-1" k3="1"/>
<feColorMatrix type="matrix" values="0 0 0 0 0 0 0 0 0 0 0 0 0 0 0 0 0 0 0.13 0"/>
<feBlend mode="normal" in2="shape" result="effect2_innerShadow_49_6481"/>
</filter>
</defs>
</svg>
