<svg class="tokenomics__pulse" viewBox="0 0 1229 465" fill="none"
								xmlns="http://www.w3.org/2000/svg">
								<path
									d="M1199.52 230.021C1187.64 230.021 1177.46 237.33 1173.15 247.727H1063.59L1032.58 164.873C1030.83 160.192 1026.17 157.279 1021.24 157.761C1016.3 158.248 1012.29 162.012 1011.47 166.948L979.997 356.133L915.939 9.5836C914.953 4.26451 910.303 0.434772 904.926 0.543518C899.554 0.647536 895.049 4.65222 894.27 10.0091L859.763 247.727H814.347L788.601 185.194C786.879 181.009 782.801 178.291 778.306 178.366C773.811 178.428 769.808 181.246 768.199 185.473L744.541 247.723H666.419C661.643 247.723 657.41 250.834 655.956 255.42L620.36 367.579L562.66 183.151C561.201 178.489 556.87 175.331 552.037 175.411C547.19 175.478 542.957 178.74 541.625 183.44L523.395 247.723H433.647L405.23 192.456C403.339 188.782 399.581 186.48 395.48 186.48C395.442 186.48 395.41 186.48 395.372 186.48C391.229 186.518 387.466 188.905 385.631 192.645L358.632 247.723H294.428C289.431 247.723 285.062 251.122 283.8 255.992L245.511 403.612L172.664 23.5314C171.669 18.3494 167.184 14.5906 161.942 14.5623C161.919 14.5623 161.9 14.5623 161.877 14.5623C156.664 14.5623 152.164 18.2549 151.117 23.4085L89.0296 328.398L38.2877 175.596C36.7862 171.08 32.5913 168.04 27.8709 168.04C27.8521 168.04 27.8334 168.04 27.8193 168.04C23.0754 168.064 18.8853 171.151 17.4213 175.695L-5.74432 247.727H-100.27C-104.572 237.33 -114.755 230.021 -126.635 230.021C-142.406 230.021 -155.192 242.905 -155.192 258.796C-155.192 274.687 -142.406 287.571 -126.635 287.571C-114.755 287.571 -104.572 280.261 -100.27 269.864H2.24657C7.00919 269.864 11.2275 266.772 12.6962 262.209L28.0445 214.489L81.1701 374.463C82.7467 379.21 87.2888 382.302 92.2485 382C97.2081 381.697 101.347 378.08 102.346 373.177L161.558 82.3061L233.114 455.692C234.086 460.765 238.417 464.486 243.545 464.656C243.667 464.656 243.784 464.661 243.906 464.661C248.885 464.661 253.263 461.276 254.53 456.391L302.911 269.864H365.459C369.64 269.864 373.455 267.472 375.308 263.699L395.715 222.068L417.214 263.888C419.101 267.562 422.864 269.864 426.97 269.864H531.686C536.59 269.864 540.902 266.588 542.249 261.836L552.708 224.947L609.817 407.484C611.257 412.085 615.485 415.215 620.271 415.224H620.295C625.071 415.224 629.304 412.113 630.758 407.527L674.448 269.864H752.104C756.656 269.864 760.734 267.037 762.362 262.753L778.874 219.307L796.878 263.037C798.581 267.169 802.584 269.864 807.022 269.864H869.265C874.718 269.864 879.344 265.836 880.132 260.399L906.446 79.1052L969.768 421.678C970.74 426.921 975.282 430.718 980.565 430.718C980.598 430.718 980.631 430.718 980.664 430.718C985.994 430.671 990.517 426.775 991.4 421.479L1026.4 211.094L1045.71 262.701C1047.33 267.013 1051.42 269.864 1055.99 269.864H1173.15C1177.45 280.261 1187.63 287.571 1199.51 287.571C1215.29 287.571 1228.07 274.687 1228.07 258.796C1228.07 242.905 1215.29 230.021 1199.51 230.021H1199.52Z"
									fill="#D63641" />
							</svg>