<svg width="1384" height="465" viewBox="0 0 1384 465" fill="none" xmlns="http://www.w3.org/2000/svg">
<path d="M1354.71 229.479C1342.83 229.479 1332.65 236.789 1328.35 247.186H1218.78L1187.78 164.331C1186.03 159.65 1181.37 156.738 1176.43 157.22C1171.49 157.707 1167.48 161.471 1166.67 166.407L1135.19 355.591L1071.13 9.04234C1070.15 3.72325 1065.5 -0.106487 1060.12 0.00225842C1054.75 0.106276 1050.24 4.11096 1049.46 9.46786L1014.96 247.186H969.539L943.793 184.653C942.071 180.468 937.993 177.75 933.498 177.825C929.003 177.887 925.001 180.705 923.391 184.931L899.733 247.181H821.612C816.835 247.181 812.603 250.292 811.148 254.879L775.553 367.038L717.852 182.61C716.393 177.948 712.062 174.79 707.229 174.87C702.382 174.936 698.149 178.199 696.817 182.898L678.587 247.181H588.839L560.423 191.915C558.532 188.241 554.773 185.939 550.672 185.939C550.635 185.939 550.602 185.939 550.564 185.939C546.421 185.976 542.658 188.364 540.823 192.104L513.824 247.181H449.62C444.623 247.181 440.254 250.581 438.992 255.451L400.703 403.071L327.856 22.9902C326.862 17.8082 322.376 14.0494 317.135 14.021C317.111 14.021 317.092 14.021 317.069 14.021C311.856 14.021 307.356 17.7136 306.31 22.8672L244.222 327.856L193.48 175.055C191.978 170.539 187.784 167.499 183.063 167.499C183.044 167.499 183.026 167.499 183.012 167.499C178.268 167.523 174.078 170.61 172.614 175.154L149.448 247.186H54.9227C50.6199 236.789 40.4377 229.479 28.557 229.479C12.7864 229.479 0 242.363 0 258.254C0 274.146 12.7864 287.03 28.557 287.03C40.4377 287.03 50.6199 279.72 54.9227 269.323H157.439C162.201 269.323 166.42 266.231 167.888 261.668L183.237 213.948L236.362 373.922C237.939 378.669 242.481 381.761 247.441 381.459C252.4 381.156 256.539 377.539 257.538 372.636L316.75 81.7649L388.307 455.15C389.278 460.224 393.609 463.945 398.737 464.115C398.859 464.115 398.977 464.12 399.099 464.12C404.077 464.12 408.455 460.734 409.722 455.85L458.104 269.323H520.651C524.832 269.323 528.647 266.93 530.5 263.157L550.907 221.527L572.407 263.347C574.293 267.02 578.056 269.323 582.162 269.323H686.879C691.782 269.323 696.094 266.046 697.441 261.295L707.9 224.406L765.009 406.943C766.45 411.543 770.677 414.673 775.464 414.683H775.487C780.264 414.683 784.496 411.572 785.951 406.986L829.64 269.323H907.297C911.848 269.323 915.926 266.495 917.554 262.212L934.066 218.766L952.07 262.496C953.773 266.628 957.776 269.323 962.215 269.323H1024.46C1029.91 269.323 1034.54 265.295 1035.32 259.857L1061.64 78.564L1124.96 421.137C1125.93 426.38 1130.47 430.177 1135.76 430.177C1135.79 430.177 1135.82 430.177 1135.86 430.177C1141.19 430.129 1145.71 426.233 1146.59 420.938L1181.6 210.553L1200.9 262.16C1202.52 266.472 1206.61 269.323 1211.18 269.323H1328.34C1332.64 279.72 1342.83 287.03 1354.71 287.03C1370.48 287.03 1383.26 274.146 1383.26 258.254C1383.26 242.363 1370.48 229.479 1354.71 229.479H1354.71Z" fill="url(#paint0_linear_4039_6346)"/>
<defs>
    <style>
      .cls-1 {
        fill-rule: evenodd;
        fill: url(#linear-gradient);
			animation: x 15s ease infinite;
      }
		 
		 @keyframes x {
0% {
		background-position: 0% 50%;
	}
	50% {
		background-position: 100% 50%;
	}
	100% {
		background-position: 0% 50%;
	}
        }
    </style>
<linearGradient id="paint0_linear_4039_6346" x1="1383.26" y1="233.183" x2="-7.98322e-05" y2="230.937" gradientUnits="userSpaceOnUse">
<stop stop-color="#701C22"/>
<stop offset="0.397705" stop-color="#701C22"/>
<stop offset="0.495133" stop-color="#FD0819"/>
<stop offset="0.537555" stop-color="#FD0819"/>
<stop offset="0.652283" stop-color="#701C22"/>
<stop offset="1" stop-color="#701C22"/>
</linearGradient>
</defs>
</svg>
