<svg width="81" height="80" viewBox="0 0 81 80" fill="none" xmlns="http://www.w3.org/2000/svg">
<path d="M67.7162 59.0266C63.0395 64.0966 55.9628 66.6666 46.6862 66.6666H43.3528V57.27L46.0328 56.7333C50.5995 55.82 53.7762 54.0233 55.4762 51.3866C56.3632 49.9662 56.8663 48.3398 56.9362 46.6666H46.6862C45.8021 46.6666 44.9543 46.3154 44.3291 45.6903C43.704 45.0652 43.3528 44.2173 43.3528 43.3333V20C43.3528 16.3233 46.3428 13.3333 50.0195 13.3333H70.0195C70.9035 13.3333 71.7514 13.6845 72.3765 14.3096C73.0016 14.9347 73.3528 15.7826 73.3528 16.6666V33.3333L73.3428 43.0633C73.3728 43.4333 74.0062 52.2 67.7162 59.0266ZM13.3528 13.3333H33.3528C34.2369 13.3333 35.0847 13.6845 35.7098 14.3096C36.335 14.9347 36.6862 15.7826 36.6862 16.6666V33.3333L36.6762 43.0633C36.7062 43.4333 37.3395 52.2 31.0495 59.0266C26.3728 64.0966 19.2961 66.6666 10.0195 66.6666H6.68615V57.27L9.36615 56.7333C13.9328 55.82 17.1095 54.0233 18.8095 51.3866C19.6965 49.9662 20.1996 48.3398 20.2695 46.6666H10.0195C9.13543 46.6666 8.28757 46.3154 7.66245 45.6903C7.03734 45.0652 6.68615 44.2173 6.68615 43.3333V20C6.68615 16.3233 9.67615 13.3333 13.3528 13.3333Z" fill="white"/>
</svg>
